<svg width="1280" height="902" viewBox="0 0 1280 902" fill="none" xmlns="http://www.w3.org/2000/svg">
<g filter="url(#filter0_f_2465_1115)">
<path d="M1220.29 535.37C1847.35 662.573 939.929 752.952 674.243 688.891C408.557 624.83 1287.76 388.772 258.159 303.385C-771.44 217.998 538.524 85.8033 804.21 149.864C1069.9 213.925 593.235 408.167 1220.29 535.37Z" fill="#A53300"/>
</g>
<path fill-rule="evenodd" clip-rule="evenodd" d="M124.647 141.638H209.665V104H209.98V141.638H294.999V104H295.314V141.638H380.332V104H380.647V141.638H465.665V104H465.98V141.638H550.998V104H551.313V141.638H636.332V104H636.646V141.638H721.666V104H721.981V141.638H807V104H807.314V141.638H892.333V104H892.648V141.638H977.666V104H977.981V141.638H1063V104H1063.31V141.638H1148.33V104H1148.65V141.638H1233.67V104H1233.98V141.638H1319V141.777H1233.98V179.415H1319V179.555H1233.98V217.192H1319V217.332H1233.98V254.97H1319V255.109H1233.98V292.747H1319V292.886H1233.98V330.524H1319V330.664H1233.98V368.302H1319V368.441H1233.98V406.079L1319 406.079V406.219L1233.98 406.218V443.857H1319V443.996H1233.98V481.634H1319V481.773H1233.98V520H1233.67V481.773H1148.65V520H1148.33V481.773H1063.31V520H1063V481.773H977.981V520H977.666V481.773H892.648V520H892.333V481.773H807.314V520H807V481.773H721.981V520H721.666V481.773H636.646V520H636.332V481.773H551.313V520H550.998V481.773H465.98V520H465.665V481.773H380.647V520H380.332V481.773H295.314V520H294.999V481.773H209.98V520H209.665V481.773H124.647V520H124.332V481.773H38.999V481.634H124.332V443.996H38.999V443.857H124.332V406.218H38.999V406.079H124.332V368.441H38.999V368.302H124.332V330.664H38.999V330.524H124.332V292.886H38.999V292.747H124.332V255.109H38.999V254.97H124.332V217.332H38.999V217.192H124.332V179.555H38.999V179.415H124.332V141.777H38.999V141.638H124.332V104H124.647V141.638ZM124.647 481.634H209.665V443.996H124.647V481.634ZM209.98 481.634H294.999V443.996H209.98V481.634ZM295.314 481.634H380.332V443.996H295.314V481.634ZM380.647 481.634H465.665V443.996H380.647V481.634ZM465.98 481.634H550.998V443.996H465.98V481.634ZM551.313 481.634H636.332V443.996H551.313V481.634ZM636.646 481.634H721.666V443.996H636.646V481.634ZM721.981 481.634H807V443.996H721.981V481.634ZM807.314 481.634H892.333V443.996H807.314V481.634ZM892.648 481.634H977.666V443.996H892.648V481.634ZM977.981 481.634H1063V443.996H977.981V481.634ZM1063.31 481.634H1148.33V443.996H1063.31V481.634ZM1148.65 481.634H1233.67V443.996H1148.65V481.634ZM124.647 443.857H209.665V406.218H124.647V443.857ZM209.98 443.857H294.999V406.218H209.98V443.857ZM295.314 443.857H380.332V406.218H295.314V443.857ZM380.647 443.857H465.665V406.218H380.647V443.857ZM465.98 443.857H550.998V406.218H465.98V443.857ZM551.313 443.857H636.332V406.218H551.313V443.857ZM636.646 443.857H721.666V406.218H636.646V443.857ZM721.981 443.857H807V406.218H721.981V443.857ZM807.314 443.857H892.333V406.218H807.314V443.857ZM892.648 443.857H977.666V406.218H892.648V443.857ZM977.981 443.857H1063V406.218H977.981V443.857ZM1063.31 443.857H1148.33V406.218H1063.31V443.857ZM1148.65 443.857H1233.67V406.218H1148.65V443.857ZM1148.65 406.079H1233.67V368.441H1148.65V406.079ZM1063.31 406.079H1148.33V368.441H1063.31V406.079ZM977.981 406.079H1063V368.441H977.981V406.079ZM892.648 406.079H977.666V368.441H892.648V406.079ZM807.314 406.079H892.333V368.441H807.314V406.079ZM721.981 406.079H807V368.441H721.981V406.079ZM636.646 406.079H721.666V368.441H636.646V406.079ZM551.313 406.079H636.332V368.441H551.313V406.079ZM465.98 406.079H550.998V368.441H465.98V406.079ZM380.647 406.079H465.665V368.441H380.647V406.079ZM295.314 406.079H380.332V368.441H295.314V406.079ZM209.98 406.079H294.999V368.441H209.98V406.079ZM124.647 406.079H209.665V368.441H124.647V406.079ZM124.647 368.302H209.665V330.664H124.647V368.302ZM209.98 368.302H294.999V330.664H209.98V368.302ZM295.314 368.302H380.332V330.664H295.314V368.302ZM380.647 368.302H465.665V330.664H380.647V368.302ZM465.98 368.302H550.998V330.664H465.98V368.302ZM551.313 368.302H636.332V330.664H551.313V368.302ZM636.646 368.302H721.666V330.664H636.646V368.302ZM721.981 368.302H807V330.664H721.981V368.302ZM807.314 368.302H892.333V330.664H807.314V368.302ZM892.648 368.302H977.666V330.664H892.648V368.302ZM977.981 368.302H1063V330.664H977.981V368.302ZM1063.31 368.302H1148.33V330.664H1063.31V368.302ZM1148.65 368.302H1233.67V330.664H1148.65V368.302ZM124.647 330.524H209.665V292.886H124.647V330.524ZM209.98 330.524H294.999V292.886H209.98V330.524ZM295.314 330.524H380.332V292.886H295.314V330.524ZM380.647 330.524H465.665V292.886H380.647V330.524ZM465.98 330.524H550.998V292.886H465.98V330.524ZM551.313 330.524H636.332V292.886H551.313V330.524ZM636.646 330.524H721.666V292.886H636.646V330.524ZM721.981 330.524H807V292.886H721.981V330.524ZM807.314 330.524H892.333V292.886H807.314V330.524ZM892.648 330.524H977.666V292.886H892.648V330.524ZM977.981 330.524H1063V292.886H977.981V330.524ZM1063.31 330.524H1148.33V292.886H1063.31V330.524ZM1148.65 330.524H1233.67V292.886H1148.65V330.524ZM124.647 292.747H209.665V255.109H124.647V292.747ZM209.98 292.747H294.999V255.109H209.98V292.747ZM295.314 292.747H380.332V255.109H295.314V292.747ZM380.647 292.747H465.665V255.109H380.647V292.747ZM465.98 292.747H550.998V255.109H465.98V292.747ZM551.313 292.747H636.332V255.109H551.313V292.747ZM636.646 292.747H721.666V255.109H636.646V292.747ZM721.981 292.747H807V255.109H721.981V292.747ZM807.314 292.747H892.333V255.109H807.314V292.747ZM892.648 292.747H977.666V255.109H892.648V292.747ZM977.981 292.747H1063V255.109H977.981V292.747ZM1063.31 292.747H1148.33V255.109H1063.31V292.747ZM1148.65 292.747H1233.67V255.109H1148.65V292.747ZM124.647 254.97H209.665V217.332H124.647V254.97ZM209.98 254.97H294.999V217.332H209.98V254.97ZM295.314 254.97H380.332V217.332H295.314V254.97ZM380.647 254.97H465.665V217.332H380.647V254.97ZM465.98 254.97H550.998V217.332H465.98V254.97ZM551.313 254.97H636.332V217.332H551.313V254.97ZM636.646 254.97H721.666V217.332H636.646V254.97ZM721.981 254.97H807V217.332H721.981V254.97ZM807.314 254.97H892.333V217.332H807.314V254.97ZM892.648 254.97H977.666V217.332H892.648V254.97ZM977.981 254.97H1063V217.332H977.981V254.97ZM1063.31 254.97H1148.33V217.332H1063.31V254.97ZM1148.65 254.97H1233.67V217.332H1148.65V254.97ZM124.647 217.192H209.665V179.555H124.647V217.192ZM209.98 217.192H294.999V179.555H209.98V217.192ZM295.314 217.192H380.332V179.555H295.314V217.192ZM380.647 217.192H465.665V179.555H380.647V217.192ZM465.98 217.192H550.998V179.555H465.98V217.192ZM551.313 217.192H636.332V179.555H551.313V217.192ZM636.646 217.192H721.666V179.555H636.646V217.192ZM721.981 217.192H807V179.555H721.981V217.192ZM807.314 217.192H892.333V179.555H807.314V217.192ZM892.648 217.192H977.666V179.555H892.648V217.192ZM977.981 217.192H1063V179.555H977.981V217.192ZM1063.31 217.192H1148.33V179.555H1063.31V217.192ZM1148.65 217.192H1233.67V179.555H1148.65V217.192ZM124.647 179.415H209.665V141.777H124.647V179.415ZM209.98 179.415H294.999V141.777H209.98V179.415ZM295.314 179.415H380.332V141.777H295.314V179.415ZM380.647 179.415H465.665V141.777H380.647V179.415ZM465.98 179.415H550.998V141.777H465.98V179.415ZM551.313 179.415H636.332V141.777H551.313V179.415ZM636.646 179.415H721.666V141.777H636.646V179.415ZM721.981 179.415H807V141.777H721.981V179.415ZM807.314 179.415H892.333V141.777H807.314V179.415ZM892.648 179.415H977.666V141.777H892.648V179.415ZM977.981 179.415H1063V141.777H977.981V179.415ZM1063.31 179.415H1148.33V141.777H1063.31V179.415ZM1148.65 179.415H1233.67V141.777H1148.65V179.415Z" fill="url(#paint0_linear_2465_1115)" fill-opacity="0.35"/>
<defs>
<filter id="filter0_f_2465_1115" x="-322.546" y="-58.7783" width="1951.14" height="960.496" filterUnits="userSpaceOnUse" color-interpolation-filters="sRGB">
<feFlood flood-opacity="0" result="BackgroundImageFix"/>
<feBlend mode="normal" in="SourceGraphic" in2="BackgroundImageFix" result="shape"/>
<feGaussianBlur stdDeviation="95.85" result="effect1_foregroundBlur_2465_1115"/>
</filter>
<linearGradient id="paint0_linear_2465_1115" x1="678.999" y1="104" x2="678.999" y2="520" gradientUnits="userSpaceOnUse">
<stop stop-color="#FF4D00"/>
<stop offset="1" stop-color="#992E00" stop-opacity="0.8"/>
</linearGradient>
</defs>
</svg>
