<svg width="1280" height="902" viewBox="0 0 1280 902" fill="none" xmlns="http://www.w3.org/2000/svg">
<g filter="url(#filter0_f_2514_1176)">
<path d="M1181.29 535.37C1808.35 662.573 900.929 752.952 635.243 688.891C369.557 624.83 1248.76 388.772 219.159 303.385C-810.44 217.998 499.524 85.8033 765.21 149.864C1030.9 213.925 554.235 408.167 1181.29 535.37Z" fill="#A53300"/>
</g>
<path fill-rule="evenodd" clip-rule="evenodd" d="M85.648 159.371H170.666V104H170.981V159.371H256V104H256.314V159.371H341.333V104H341.648V159.371H426.666V104H426.981V159.371H511.999V104H512.314V159.371H597.333V104H597.647V159.371H682.667V104H682.982V159.371H768.001V104H768.315V159.371H853.334V104H853.649V159.371H938.667V104H938.982V159.371H1024V104H1024.32V159.371H1109.33V104H1109.65V159.371H1194.67V104H1194.98V159.371H1280V159.576H1194.98V214.947H1280V215.152H1194.98V270.524H1280V270.729H1194.98V326.1H1280V326.305H1194.98V381.676H1280V381.881H1194.98V437.252H1280V437.457H1194.98V492.828H1280V493.033H1194.98V548.404L1280 548.405V548.61L1194.98 548.609V603.982H1280V604.187H1194.98V659.558H1280V659.763H1194.98V716H1194.67V659.763H1109.65V716H1109.33V659.763H1024.32V716H1024V659.763H938.982V716H938.667V659.763H853.649V716H853.334V659.763H768.315V716H768.001V659.763H682.982V716H682.667V659.763H597.647V716H597.333V659.763H512.314V716H511.999V659.763H426.981V716H426.666V659.763H341.648V716H341.333V659.763H256.314V716H256V659.763H170.981V716H170.666V659.763H85.648V716H85.3332V659.763H0V659.558H85.3332V604.187H0V603.982H85.3332V548.609H0V548.404H85.3332V493.033H0V492.828H85.3332V437.457H0V437.252H85.3332V381.881H0V381.676H85.3332V326.305H0V326.1H85.3332V270.729H0V270.524H85.3332V215.152H0V214.947H85.3332V159.576H0V159.371H85.3332V104H85.648V159.371ZM85.648 659.558H170.666V604.187H85.648V659.558ZM170.981 659.558H256V604.187H170.981V659.558ZM256.314 659.558H341.333V604.187H256.314V659.558ZM341.648 659.558H426.666V604.187H341.648V659.558ZM426.981 659.558H511.999V604.187H426.981V659.558ZM512.314 659.558H597.333V604.187H512.314V659.558ZM597.647 659.558H682.667V604.187H597.647V659.558ZM682.982 659.558H768.001V604.187H682.982V659.558ZM768.315 659.558H853.334V604.187H768.315V659.558ZM853.649 659.558H938.667V604.187H853.649V659.558ZM938.982 659.558H1024V604.187H938.982V659.558ZM1024.32 659.558H1109.33V604.187H1024.32V659.558ZM1109.65 659.558H1194.67V604.187H1109.65V659.558ZM85.648 603.982H170.666V548.609H85.648V603.982ZM170.981 603.982H256V548.609H170.981V603.982ZM256.314 603.982H341.333V548.609H256.314V603.982ZM341.648 603.982H426.666V548.609H341.648V603.982ZM426.981 603.982H511.999V548.609H426.981V603.982ZM512.314 603.982H597.333V548.609H512.314V603.982ZM597.647 603.982H682.667V548.609H597.647V603.982ZM682.982 603.982H768.001V548.609H682.982V603.982ZM768.315 603.982H853.334V548.609H768.315V603.982ZM853.649 603.982H938.667V548.609H853.649V603.982ZM938.982 603.982H1024V548.609H938.982V603.982ZM1024.32 603.982H1109.33V548.609H1024.32V603.982ZM1109.65 603.982H1194.67V548.609H1109.65V603.982ZM1109.65 548.404H1194.67V493.033H1109.65V548.404ZM1024.32 548.404H1109.33V493.033H1024.32V548.404ZM938.982 548.404H1024V493.033H938.982V548.404ZM853.649 548.404H938.667V493.033H853.649V548.404ZM768.315 548.404H853.334V493.033H768.315V548.404ZM682.982 548.404H768.001V493.033H682.982V548.404ZM597.647 548.404H682.667V493.033H597.647V548.404ZM512.314 548.404H597.333V493.033H512.314V548.404ZM426.981 548.404H511.999V493.033H426.981V548.404ZM341.648 548.404H426.666V493.033H341.648V548.404ZM256.314 548.404H341.333V493.033H256.314V548.404ZM170.981 548.404H256V493.033H170.981V548.404ZM85.648 548.404H170.666V493.033H85.648V548.404ZM85.648 492.828H170.666V437.457H85.648V492.828ZM170.981 492.828H256V437.457H170.981V492.828ZM256.314 492.828H341.333V437.457H256.314V492.828ZM341.648 492.828H426.666V437.457H341.648V492.828ZM426.981 492.828H511.999V437.457H426.981V492.828ZM512.314 492.828H597.333V437.457H512.314V492.828ZM597.647 492.828H682.667V437.457H597.647V492.828ZM682.982 492.828H768.001V437.457H682.982V492.828ZM768.315 492.828H853.334V437.457H768.315V492.828ZM853.649 492.828H938.667V437.457H853.649V492.828ZM938.982 492.828H1024V437.457H938.982V492.828ZM1024.32 492.828H1109.33V437.457H1024.32V492.828ZM1109.65 492.828H1194.67V437.457H1109.65V492.828ZM85.648 437.252H170.666V381.881H85.648V437.252ZM170.981 437.252H256V381.881H170.981V437.252ZM256.314 437.252H341.333V381.881H256.314V437.252ZM341.648 437.252H426.666V381.881H341.648V437.252ZM426.981 437.252H511.999V381.881H426.981V437.252ZM512.314 437.252H597.333V381.881H512.314V437.252ZM597.647 437.252H682.667V381.881H597.647V437.252ZM682.982 437.252H768.001V381.881H682.982V437.252ZM768.315 437.252H853.334V381.881H768.315V437.252ZM853.649 437.252H938.667V381.881H853.649V437.252ZM938.982 437.252H1024V381.881H938.982V437.252ZM1024.32 437.252H1109.33V381.881H1024.32V437.252ZM1109.65 437.252H1194.67V381.881H1109.65V437.252ZM85.648 381.676H170.666V326.305H85.648V381.676ZM170.981 381.676H256V326.305H170.981V381.676ZM256.314 381.676H341.333V326.305H256.314V381.676ZM341.648 381.676H426.666V326.305H341.648V381.676ZM426.981 381.676H511.999V326.305H426.981V381.676ZM512.314 381.676H597.333V326.305H512.314V381.676ZM597.647 381.676H682.667V326.305H597.647V381.676ZM682.982 381.676H768.001V326.305H682.982V381.676ZM768.315 381.676H853.334V326.305H768.315V381.676ZM853.649 381.676H938.667V326.305H853.649V381.676ZM938.982 381.676H1024V326.305H938.982V381.676ZM1024.32 381.676H1109.33V326.305H1024.32V381.676ZM1109.65 381.676H1194.67V326.305H1109.65V381.676ZM85.648 326.1H170.666V270.729H85.648V326.1ZM170.981 326.1H256V270.729H170.981V326.1ZM256.314 326.1H341.333V270.729H256.314V326.1ZM341.648 326.1H426.666V270.729H341.648V326.1ZM426.981 326.1H511.999V270.729H426.981V326.1ZM512.314 326.1H597.333V270.729H512.314V326.1ZM597.647 326.1H682.667V270.729H597.647V326.1ZM682.982 326.1H768.001V270.729H682.982V326.1ZM768.315 326.1H853.334V270.729H768.315V326.1ZM853.649 326.1H938.667V270.729H853.649V326.1ZM938.982 326.1H1024V270.729H938.982V326.1ZM1024.32 326.1H1109.33V270.729H1024.32V326.1ZM1109.65 326.1H1194.67V270.729H1109.65V326.1ZM85.648 270.524H170.666V215.152H85.648V270.524ZM170.981 270.524H256V215.152H170.981V270.524ZM256.314 270.524H341.333V215.152H256.314V270.524ZM341.648 270.524H426.666V215.152H341.648V270.524ZM426.981 270.524H511.999V215.152H426.981V270.524ZM512.314 270.524H597.333V215.152H512.314V270.524ZM597.647 270.524H682.667V215.152H597.647V270.524ZM682.982 270.524H768.001V215.152H682.982V270.524ZM768.315 270.524H853.334V215.152H768.315V270.524ZM853.649 270.524H938.667V215.152H853.649V270.524ZM938.982 270.524H1024V215.152H938.982V270.524ZM1024.32 270.524H1109.33V215.152H1024.32V270.524ZM1109.65 270.524H1194.67V215.152H1109.65V270.524ZM85.648 214.947H170.666V159.576H85.648V214.947ZM170.981 214.947H256V159.576H170.981V214.947ZM256.314 214.947H341.333V159.576H256.314V214.947ZM341.648 214.947H426.666V159.576H341.648V214.947ZM426.981 214.947H511.999V159.576H426.981V214.947ZM512.314 214.947H597.333V159.576H512.314V214.947ZM597.647 214.947H682.667V159.576H597.647V214.947ZM682.982 214.947H768.001V159.576H682.982V214.947ZM768.315 214.947H853.334V159.576H768.315V214.947ZM853.649 214.947H938.667V159.576H853.649V214.947ZM938.982 214.947H1024V159.576H938.982V214.947ZM1024.32 214.947H1109.33V159.576H1024.32V214.947ZM1109.65 214.947H1194.67V159.576H1109.65V214.947Z" fill="url(#paint0_linear_2514_1176)" fill-opacity="0.35"/>
<defs>
<filter id="filter0_f_2514_1176" x="-361.546" y="-58.7784" width="1951.13" height="960.496" filterUnits="userSpaceOnUse" color-interpolation-filters="sRGB">
<feFlood flood-opacity="0" result="BackgroundImageFix"/>
<feBlend mode="normal" in="SourceGraphic" in2="BackgroundImageFix" result="shape"/>
<feGaussianBlur stdDeviation="95.85" result="effect1_foregroundBlur_2514_1176"/>
</filter>
<linearGradient id="paint0_linear_2514_1176" x1="640" y1="104" x2="640" y2="716" gradientUnits="userSpaceOnUse">
<stop stop-color="#FF4D00"/>
<stop offset="1" stop-color="#992E00" stop-opacity="0.8"/>
</linearGradient>
</defs>
</svg>
