<svg width="61" height="61" viewBox="0 0 61 61" fill="none" xmlns="http://www.w3.org/2000/svg">
<circle cx="30.5" cy="30.5" r="29.5" stroke="#016FFF" stroke-width="2"/>
<path d="M37.9665 44.2501H34.556L31.3894 36.3334H21.1104L17.9437 44.2501H14.5332L24.6665 18.9167H27.8332L37.9665 44.2501ZM45.2499 30V44.2501H42.0832V30H45.2499ZM22.377 33.1667H30.1227L26.2499 23.4846L22.377 33.1667ZM42.9208 14.6734C42.9802 14.5242 43.0831 14.3962 43.216 14.3061C43.349 14.2159 43.5059 14.1677 43.6665 14.1677C43.8272 14.1677 43.9841 14.2159 44.117 14.3061C44.25 14.3962 44.3528 14.5242 44.4123 14.6734L44.8129 15.6392C45.485 17.2781 46.76 18.5968 48.3754 19.3236L49.5106 19.8303C49.656 19.8976 49.779 20.005 49.8653 20.14C49.9515 20.2749 49.9974 20.4317 49.9974 20.5919C49.9974 20.752 49.9515 20.9089 49.8653 21.0438C49.779 21.1788 49.656 21.2862 49.5106 21.3535L48.3105 21.8886C46.7344 22.5947 45.4803 23.8658 44.7955 25.4511L44.406 26.3473C44.3451 26.4932 44.2424 26.6179 44.1108 26.7056C43.9792 26.7932 43.8247 26.84 43.6665 26.84C43.5084 26.84 43.3538 26.7932 43.2223 26.7056C43.0907 26.6179 42.988 26.4932 42.9271 26.3473L42.536 25.4527C41.8519 23.867 40.5983 22.5954 39.0226 21.8886L37.8193 21.3535C37.6735 21.2864 37.55 21.1789 37.4634 21.0438C37.3768 20.9087 37.3308 20.7516 37.3308 20.5911C37.3308 20.4306 37.3768 20.2735 37.4634 20.1384C37.55 20.0032 37.6735 19.8958 37.8193 19.8287L38.9561 19.322C40.5715 18.5963 41.847 17.2788 42.5202 15.6408L42.9208 14.6734Z" fill="#60A5FF"/>
</svg>
