<svg width="61" height="61" viewBox="0 0 61 61" fill="none" xmlns="http://www.w3.org/2000/svg">
<circle cx="30.5" cy="30.5" r="29.5" stroke="#FF8801" stroke-width="2"/>
<path d="M35.0434 21H37.0434C37.5738 21 38.0826 21.2107 38.4576 21.5857C38.8327 21.9608 39.0434 22.4695 39.0434 23V25C39.0434 25.5304 39.2541 26.0391 39.6292 26.4142C40.0043 26.7892 40.513 27 41.0434 27C41.5738 27 42.0826 26.7892 42.4576 26.4142C42.8327 26.0391 43.0434 25.5304 43.0434 25V23C43.0418 21.4091 42.4092 19.8839 41.2843 18.7591C40.1594 17.6342 38.6342 17.0015 37.0434 17H35.0434C34.513 17 34.0043 17.2107 33.6292 17.5857C33.2541 17.9608 33.0434 18.4695 33.0434 19C33.0434 19.5304 33.2541 20.0391 33.6292 20.4142C34.0043 20.7892 34.513 21 35.0434 21ZM27.0434 39H25.0434C24.513 39 24.0043 38.7892 23.6292 38.4142C23.2541 38.0391 23.0434 37.5304 23.0434 37V35C23.0434 34.4695 22.8327 33.9608 22.4576 33.5857C22.0826 33.2107 21.5738 33 21.0434 33C20.513 33 20.0043 33.2107 19.6292 33.5857C19.2541 33.9608 19.0434 34.4695 19.0434 35V37C19.045 38.5908 19.6776 40.116 20.8025 41.2408C21.9274 42.3657 23.4526 42.9984 25.0434 43H27.0434C27.5738 43 28.0826 42.7892 28.4576 42.4142C28.8327 42.0391 29.0434 41.5304 29.0434 41C29.0434 40.4695 28.8327 39.9608 28.4576 39.5857C28.0826 39.2107 27.5738 39 27.0434 39ZM49.0434 37C49.5738 37 50.0825 36.7892 50.4576 36.4142C50.8327 36.0391 51.0434 35.5304 51.0434 35C51.0434 34.4695 50.8327 33.9608 50.4576 33.5857C50.0825 33.2107 49.5738 33 49.0434 33H43.0434V32C43.0434 31.4695 42.8327 30.9608 42.4576 30.5857C42.0826 30.2107 41.5738 30 41.0434 30C40.513 30 40.0043 30.2107 39.6292 30.5857C39.2541 30.9608 39.0434 31.4695 39.0434 32V33H33.0434C32.513 33 32.0043 33.2107 31.6292 33.5857C31.2541 33.9608 31.0434 34.4695 31.0434 35C31.0434 35.5304 31.2541 36.0391 31.6292 36.4142C32.0043 36.7892 32.513 37 33.0434 37H43.4114C42.9609 38.8388 42.1259 40.5613 40.9614 42.054C40.485 41.4365 40.0634 40.7787 39.7014 40.088C39.5864 39.8464 39.424 39.6304 39.224 39.4527C39.0239 39.275 38.7903 39.1392 38.5368 39.0535C38.2834 38.9677 38.0153 38.9337 37.7485 38.9534C37.4816 38.9731 37.2215 39.0461 36.9834 39.1682C36.7453 39.2902 36.5341 39.4588 36.3623 39.664C36.1905 39.8691 36.0617 40.1067 35.9834 40.3625C35.905 40.6183 35.8788 40.8873 35.9063 41.1535C35.9338 41.4196 36.0144 41.6775 36.1434 41.9119C36.6829 42.9528 37.3261 43.9365 38.0634 44.8479C36.6122 45.9027 34.9613 46.6506 33.2114 47.046C32.6932 47.1592 32.2412 47.4737 31.9548 47.9202C31.6684 48.3667 31.5712 48.9087 31.6844 49.4269C31.7977 49.9452 32.1121 50.3972 32.5587 50.6836C33.0052 50.9699 33.5472 51.0672 34.0654 50.9539C36.5756 50.401 38.93 49.2925 40.9554 47.7099C42.9984 49.2932 45.3685 50.4013 47.8934 50.9539C48.4116 51.068 48.954 50.9715 49.401 50.6857C49.8481 50.3999 50.1634 49.9482 50.2774 49.43C50.3915 48.9117 50.295 48.3694 50.0092 47.9223C49.7233 47.4752 49.2716 47.16 48.7534 47.046C46.9927 46.6559 45.3288 45.9144 43.8614 44.866C45.7108 42.5897 46.9578 39.8846 47.4874 37H49.0434ZM25.1034 29.486C25.2354 29.9972 25.5641 30.4354 26.0179 30.7052C26.4717 30.975 27.0138 31.0544 27.526 30.9261C28.0381 30.7978 28.4787 30.4723 28.7517 30.0204C29.0248 29.5685 29.108 29.027 28.9834 28.514L25.4694 14.454C25.2228 13.4667 24.6532 12.5903 23.8513 11.964C23.0493 11.3377 22.061 10.9976 21.0434 10.9976C20.0259 10.9976 19.0375 11.3377 18.2356 11.964C17.4336 12.5903 16.864 13.4667 16.6174 14.454L13.1034 28.514C12.9788 29.027 13.0621 29.5685 13.3351 30.0204C13.6081 30.4723 14.0487 30.7978 14.5609 30.9261C15.073 31.0544 15.6151 30.975 16.0689 30.7052C16.5227 30.4354 16.8515 29.9972 16.9834 29.486L18.1034 25H23.9834L25.1034 29.486ZM19.1034 21L20.4994 15.426C20.5414 15.3156 20.6158 15.2207 20.713 15.1537C20.8102 15.0867 20.9254 15.0508 21.0434 15.0508C21.1614 15.0508 21.2767 15.0867 21.3738 15.1537C21.471 15.2207 21.5455 15.3156 21.5874 15.426L22.9814 21H19.1034Z" fill="#FF8801"/>
</svg>
