<svg width="550" height="303" viewBox="0 0 550 303" fill="none" xmlns="http://www.w3.org/2000/svg">
<line x1="163.238" y1="143.5" x2="388.238" y2="143.5" stroke="#FF7700" stroke-width="3"/>
<g filter="url(#filter0_d_2527_1177)">
<path d="M120.542 69C122.852 65 128.625 65 130.934 69L225.764 233.25C228.074 237.25 225.187 242.25 220.568 242.25H30.9085C26.2897 242.25 23.4029 237.25 25.7123 233.25L120.542 69Z" fill="#ED8224"/>
</g>
<g filter="url(#filter1_d_2527_1177)">
<path d="M418.542 69C420.852 65 426.625 65 428.934 69L523.764 233.25C526.074 237.25 523.187 242.25 518.568 242.25H328.908C324.29 242.25 321.403 237.25 323.712 233.25L418.542 69Z" fill="#ED8224"/>
</g>
<g filter="url(#filter2_d_2527_1177)">
<path d="M280.934 234C278.625 238 272.852 238 270.542 234L175.712 69.75C173.403 65.75 176.29 60.75 180.909 60.75L370.568 60.75C375.187 60.75 378.074 65.75 375.764 69.75L280.934 234Z" fill="#ED8224"/>
</g>
<circle cx="220.238" cy="143" r="7" fill="#ED8224"/>
<circle cx="379.238" cy="143" r="7" fill="#ED8224"/>
<circle cx="170.238" cy="144" r="7" fill="#ED8224"/>
<circle cx="330.238" cy="144" r="7" fill="#ED8224"/>
<path d="M72.0296 204.286C71.1936 204.286 70.4456 204.198 69.7856 204.022C69.1256 203.861 68.5462 203.611 68.0476 203.274C67.5489 202.937 67.1309 202.533 66.7936 202.064C66.4709 201.58 66.2216 201.037 66.0456 200.436C65.8842 199.82 65.8036 199.145 65.8036 198.412V189.48H68.2236V198.324C68.2236 199.175 68.3629 199.879 68.6416 200.436C68.9349 200.993 69.3602 201.419 69.9176 201.712C70.4749 201.991 71.1716 202.13 72.0076 202.13C72.8729 202.13 73.5842 201.991 74.1416 201.712C74.6989 201.433 75.1169 201.015 75.3956 200.458C75.6742 199.886 75.8136 199.175 75.8136 198.324V189.48H78.2116V198.412C78.2116 200.289 77.6836 201.741 76.6276 202.768C75.5862 203.78 74.0536 204.286 72.0296 204.286ZM80.8261 204V196.96V192.56H82.8941L82.7621 196.124H83.1361C83.3415 195.244 83.6128 194.525 83.9501 193.968C84.3021 193.396 84.7421 192.971 85.2701 192.692C85.8128 192.413 86.4435 192.274 87.1621 192.274C88.4381 192.274 89.4061 192.729 90.0661 193.638C90.7408 194.547 91.0781 195.933 91.0781 197.796V204H88.6581V198.038C88.6581 196.762 88.4675 195.831 88.0861 195.244C87.7048 194.643 87.1328 194.342 86.3701 194.342C85.7101 194.342 85.1455 194.555 84.6761 194.98C84.2215 195.391 83.8695 195.933 83.6201 196.608C83.3708 197.283 83.2315 198.016 83.2021 198.808V204H80.8261ZM97.6424 204.286C96.6744 204.286 95.8384 204.037 95.1344 203.538C94.4304 203.025 93.895 202.321 93.5284 201.426C93.1617 200.517 92.9784 199.468 92.9784 198.28C92.9784 197.121 93.147 196.095 93.4844 195.2C93.8364 194.291 94.3497 193.579 95.0244 193.066C95.7137 192.553 96.557 192.296 97.5544 192.296C98.3464 192.296 98.999 192.457 99.5124 192.78C100.026 193.088 100.436 193.513 100.744 194.056C101.067 194.599 101.309 195.2 101.47 195.86H101.91C101.837 195.435 101.764 194.995 101.69 194.54C101.617 194.071 101.558 193.623 101.514 193.198C101.47 192.758 101.448 192.369 101.448 192.032V188.49H103.868V198.368V204H101.778L101.866 200.832H101.47C101.294 201.551 101.045 202.167 100.722 202.68C100.4 203.193 99.9817 203.589 99.4684 203.868C98.9697 204.147 98.361 204.286 97.6424 204.286ZM98.3024 202.262C98.8157 202.262 99.2704 202.145 99.6664 201.91C100.062 201.675 100.392 201.367 100.656 200.986C100.92 200.605 101.118 200.194 101.25 199.754C101.397 199.299 101.47 198.874 101.47 198.478V198.17C101.47 197.877 101.426 197.561 101.338 197.224C101.265 196.872 101.14 196.527 100.964 196.19C100.803 195.838 100.598 195.523 100.348 195.244C100.099 194.965 99.7984 194.745 99.4464 194.584C99.109 194.408 98.7277 194.32 98.3024 194.32C97.6864 194.32 97.1657 194.496 96.7404 194.848C96.3297 195.185 96.0144 195.655 95.7944 196.256C95.5744 196.857 95.4644 197.547 95.4644 198.324C95.4644 199.116 95.5744 199.813 95.7944 200.414C96.029 201.001 96.359 201.455 96.7844 201.778C97.2097 202.101 97.7157 202.262 98.3024 202.262ZM111.529 204.286C110.619 204.286 109.813 204.154 109.109 203.89C108.405 203.611 107.811 203.223 107.327 202.724C106.843 202.211 106.476 201.602 106.227 200.898C105.977 200.179 105.853 199.373 105.853 198.478C105.853 197.583 105.977 196.762 106.227 196.014C106.476 195.251 106.828 194.591 107.283 194.034C107.752 193.477 108.324 193.044 108.999 192.736C109.688 192.428 110.465 192.274 111.331 192.274C112.137 192.274 112.856 192.406 113.487 192.67C114.132 192.934 114.675 193.337 115.115 193.88C115.555 194.408 115.885 195.075 116.105 195.882C116.325 196.674 116.405 197.605 116.347 198.676L107.393 198.742V197.246L114.939 197.18L114.103 198.104C114.191 197.224 114.117 196.498 113.883 195.926C113.648 195.354 113.311 194.929 112.871 194.65C112.431 194.371 111.925 194.232 111.353 194.232C110.707 194.232 110.143 194.401 109.659 194.738C109.189 195.061 108.823 195.537 108.559 196.168C108.295 196.799 108.163 197.554 108.163 198.434C108.163 199.754 108.456 200.751 109.043 201.426C109.629 202.086 110.465 202.416 111.551 202.416C112.005 202.416 112.394 202.365 112.717 202.262C113.039 202.145 113.311 201.998 113.531 201.822C113.751 201.631 113.927 201.411 114.059 201.162C114.205 200.898 114.323 200.627 114.411 200.348L116.501 200.832C116.369 201.375 116.163 201.859 115.885 202.284C115.621 202.695 115.283 203.054 114.873 203.362C114.462 203.655 113.978 203.883 113.421 204.044C112.878 204.205 112.247 204.286 111.529 204.286ZM118.377 204V198.038V192.56H120.445L120.335 196.52H120.709C120.841 195.625 121.047 194.863 121.325 194.232C121.604 193.601 121.985 193.125 122.469 192.802C122.953 192.465 123.555 192.296 124.273 192.296C124.42 192.296 124.581 192.303 124.757 192.318C124.933 192.333 125.131 192.377 125.351 192.45L125.241 194.958C125.021 194.87 124.794 194.811 124.559 194.782C124.325 194.738 124.112 194.716 123.921 194.716C123.335 194.716 122.836 194.885 122.425 195.222C122.015 195.545 121.67 195.999 121.391 196.586C121.127 197.158 120.922 197.825 120.775 198.588V204H118.377ZM131.075 204.286C130.283 204.286 129.579 204.205 128.963 204.044C128.347 203.883 127.819 203.655 127.379 203.362C126.954 203.054 126.624 202.687 126.389 202.262C126.155 201.837 126.015 201.375 125.971 200.876L127.907 200.238C127.907 200.663 128.039 201.045 128.303 201.382C128.567 201.719 128.941 201.983 129.425 202.174C129.924 202.35 130.518 202.438 131.207 202.438C132.014 202.438 132.637 202.306 133.077 202.042C133.517 201.778 133.737 201.411 133.737 200.942C133.737 200.59 133.613 200.311 133.363 200.106C133.129 199.901 132.784 199.732 132.329 199.6C131.889 199.468 131.369 199.343 130.767 199.226C130.225 199.109 129.682 198.977 129.139 198.83C128.611 198.669 128.12 198.463 127.665 198.214C127.225 197.965 126.866 197.642 126.587 197.246C126.323 196.835 126.191 196.322 126.191 195.706C126.191 195.002 126.375 194.401 126.741 193.902C127.108 193.389 127.636 192.993 128.325 192.714C129.029 192.421 129.865 192.274 130.833 192.274C131.772 192.274 132.579 192.413 133.253 192.692C133.943 192.971 134.493 193.359 134.903 193.858C135.314 194.357 135.563 194.943 135.651 195.618L133.627 196.212C133.598 195.757 133.459 195.376 133.209 195.068C132.975 194.76 132.652 194.533 132.241 194.386C131.831 194.225 131.347 194.144 130.789 194.144C130.056 194.144 129.477 194.276 129.051 194.54C128.641 194.804 128.435 195.163 128.435 195.618C128.435 195.97 128.56 196.256 128.809 196.476C129.073 196.681 129.425 196.85 129.865 196.982C130.32 197.099 130.833 197.217 131.405 197.334C131.992 197.451 132.557 197.583 133.099 197.73C133.642 197.877 134.126 198.075 134.551 198.324C134.991 198.559 135.336 198.881 135.585 199.292C135.849 199.688 135.981 200.194 135.981 200.81C135.981 201.558 135.776 202.196 135.365 202.724C134.969 203.237 134.405 203.626 133.671 203.89C132.938 204.154 132.073 204.286 131.075 204.286ZM141.617 204.242C140.487 204.242 139.644 203.934 139.087 203.318C138.544 202.702 138.273 201.756 138.273 200.48V194.518H136.579L136.623 192.56H137.723C138.104 192.56 138.39 192.501 138.581 192.384C138.771 192.252 138.889 192.025 138.933 191.702L139.153 190.008H140.583V192.56H143.729V194.562H140.583V200.414C140.583 200.986 140.715 201.397 140.979 201.646C141.243 201.895 141.631 202.02 142.145 202.02C142.423 202.02 142.702 201.991 142.981 201.932C143.274 201.859 143.553 201.727 143.817 201.536V203.846C143.377 203.993 142.973 204.095 142.607 204.154C142.24 204.213 141.91 204.242 141.617 204.242ZM148.17 204.286C147.54 204.286 146.975 204.169 146.476 203.934C145.978 203.685 145.582 203.318 145.288 202.834C145.01 202.35 144.87 201.749 144.87 201.03C144.87 200.458 144.973 199.967 145.178 199.556C145.398 199.131 145.721 198.779 146.146 198.5C146.586 198.207 147.144 197.972 147.818 197.796C148.493 197.605 149.292 197.444 150.216 197.312C150.73 197.239 151.148 197.165 151.47 197.092C151.808 197.019 152.05 196.901 152.196 196.74C152.358 196.579 152.438 196.337 152.438 196.014C152.438 195.515 152.262 195.09 151.91 194.738C151.573 194.371 151.023 194.188 150.26 194.188C149.835 194.188 149.41 194.261 148.984 194.408C148.574 194.555 148.214 194.797 147.906 195.134C147.613 195.457 147.415 195.897 147.312 196.454L145.156 195.772C145.288 195.215 145.501 194.723 145.794 194.298C146.088 193.858 146.454 193.491 146.894 193.198C147.334 192.89 147.84 192.663 148.412 192.516C148.999 192.355 149.637 192.274 150.326 192.274C151.338 192.274 152.174 192.443 152.834 192.78C153.494 193.117 153.986 193.638 154.308 194.342C154.646 195.031 154.814 195.919 154.814 197.004V199.336C154.814 199.82 154.822 200.333 154.836 200.876C154.866 201.404 154.895 201.939 154.924 202.482C154.968 203.01 155.02 203.516 155.078 204H152.9C152.856 203.56 152.812 203.105 152.768 202.636C152.739 202.167 152.71 201.69 152.68 201.206H152.35C152.145 201.763 151.852 202.277 151.47 202.746C151.104 203.215 150.642 203.589 150.084 203.868C149.542 204.147 148.904 204.286 148.17 204.286ZM149.006 202.438C149.314 202.438 149.622 202.387 149.93 202.284C150.253 202.181 150.568 202.027 150.876 201.822C151.199 201.602 151.492 201.323 151.756 200.986C152.035 200.649 152.277 200.245 152.482 199.776L152.46 197.708L153.032 197.818C152.783 198.038 152.468 198.207 152.086 198.324C151.72 198.441 151.316 198.537 150.876 198.61C150.436 198.669 149.996 198.742 149.556 198.83C149.131 198.903 148.735 199.013 148.368 199.16C148.016 199.292 147.73 199.483 147.51 199.732C147.305 199.981 147.202 200.326 147.202 200.766C147.202 201.309 147.371 201.727 147.708 202.02C148.046 202.299 148.478 202.438 149.006 202.438ZM157.353 204V196.96V192.56H159.421L159.289 196.124H159.663C159.868 195.244 160.139 194.525 160.477 193.968C160.829 193.396 161.269 192.971 161.797 192.692C162.339 192.413 162.97 192.274 163.689 192.274C164.965 192.274 165.933 192.729 166.593 193.638C167.267 194.547 167.605 195.933 167.605 197.796V204H165.185V198.038C165.185 196.762 164.994 195.831 164.613 195.244C164.231 194.643 163.659 194.342 162.897 194.342C162.237 194.342 161.672 194.555 161.203 194.98C160.748 195.391 160.396 195.933 160.147 196.608C159.897 197.283 159.758 198.016 159.729 198.808V204H157.353ZM174.169 204.286C173.201 204.286 172.365 204.037 171.661 203.538C170.957 203.025 170.422 202.321 170.055 201.426C169.688 200.517 169.505 199.468 169.505 198.28C169.505 197.121 169.674 196.095 170.011 195.2C170.363 194.291 170.876 193.579 171.551 193.066C172.24 192.553 173.084 192.296 174.081 192.296C174.873 192.296 175.526 192.457 176.039 192.78C176.552 193.088 176.963 193.513 177.271 194.056C177.594 194.599 177.836 195.2 177.997 195.86H178.437C178.364 195.435 178.29 194.995 178.217 194.54C178.144 194.071 178.085 193.623 178.041 193.198C177.997 192.758 177.975 192.369 177.975 192.032V188.49H180.395V198.368V204H178.305L178.393 200.832H177.997C177.821 201.551 177.572 202.167 177.249 202.68C176.926 203.193 176.508 203.589 175.995 203.868C175.496 204.147 174.888 204.286 174.169 204.286ZM174.829 202.262C175.342 202.262 175.797 202.145 176.193 201.91C176.589 201.675 176.919 201.367 177.183 200.986C177.447 200.605 177.645 200.194 177.777 199.754C177.924 199.299 177.997 198.874 177.997 198.478V198.17C177.997 197.877 177.953 197.561 177.865 197.224C177.792 196.872 177.667 196.527 177.491 196.19C177.33 195.838 177.124 195.523 176.875 195.244C176.626 194.965 176.325 194.745 175.973 194.584C175.636 194.408 175.254 194.32 174.829 194.32C174.213 194.32 173.692 194.496 173.267 194.848C172.856 195.185 172.541 195.655 172.321 196.256C172.101 196.857 171.991 197.547 171.991 198.324C171.991 199.116 172.101 199.813 172.321 200.414C172.556 201.001 172.886 201.455 173.311 201.778C173.736 202.101 174.242 202.262 174.829 202.262ZM72.6585 224.286C71.8665 224.286 71.1625 224.205 70.5465 224.044C69.9305 223.883 69.4025 223.655 68.9625 223.362C68.5371 223.054 68.2071 222.687 67.9725 222.262C67.7378 221.837 67.5985 221.375 67.5545 220.876L69.4905 220.238C69.4905 220.663 69.6225 221.045 69.8865 221.382C70.1505 221.719 70.5245 221.983 71.0085 222.174C71.5071 222.35 72.1011 222.438 72.7905 222.438C73.5971 222.438 74.2205 222.306 74.6605 222.042C75.1005 221.778 75.3205 221.411 75.3205 220.942C75.3205 220.59 75.1958 220.311 74.9465 220.106C74.7118 219.901 74.3671 219.732 73.9125 219.6C73.4725 219.468 72.9518 219.343 72.3505 219.226C71.8078 219.109 71.2651 218.977 70.7225 218.83C70.1945 218.669 69.7031 218.463 69.2485 218.214C68.8085 217.965 68.4491 217.642 68.1705 217.246C67.9065 216.835 67.7745 216.322 67.7745 215.706C67.7745 215.002 67.9578 214.401 68.3245 213.902C68.6911 213.389 69.2191 212.993 69.9085 212.714C70.6125 212.421 71.4485 212.274 72.4165 212.274C73.3551 212.274 74.1618 212.413 74.8365 212.692C75.5258 212.971 76.0758 213.359 76.4865 213.858C76.8971 214.357 77.1465 214.943 77.2345 215.618L75.2105 216.212C75.1811 215.757 75.0418 215.376 74.7925 215.068C74.5578 214.76 74.2351 214.533 73.8245 214.386C73.4138 214.225 72.9298 214.144 72.3725 214.144C71.6391 214.144 71.0598 214.276 70.6345 214.54C70.2238 214.804 70.0185 215.163 70.0185 215.618C70.0185 215.97 70.1431 216.256 70.3925 216.476C70.6565 216.681 71.0085 216.85 71.4485 216.982C71.9031 217.099 72.4165 217.217 72.9885 217.334C73.5751 217.451 74.1398 217.583 74.6825 217.73C75.2251 217.877 75.7091 218.075 76.1345 218.324C76.5745 218.559 76.9191 218.881 77.1685 219.292C77.4325 219.688 77.5645 220.194 77.5645 220.81C77.5645 221.558 77.3591 222.196 76.9485 222.724C76.5525 223.237 75.9878 223.626 75.2545 223.89C74.5211 224.154 73.6558 224.286 72.6585 224.286ZM83.1999 224.242C82.0706 224.242 81.2272 223.934 80.6699 223.318C80.1272 222.702 79.8559 221.756 79.8559 220.48V214.518H78.1619L78.2059 212.56H79.3059C79.6872 212.56 79.9732 212.501 80.1639 212.384C80.3546 212.252 80.4719 212.025 80.5159 211.702L80.7359 210.008H82.1659V212.56H85.3119V214.562H82.1659V220.414C82.1659 220.986 82.2979 221.397 82.5619 221.646C82.8259 221.895 83.2146 222.02 83.7279 222.02C84.0066 222.02 84.2852 221.991 84.5639 221.932C84.8572 221.859 85.1359 221.727 85.3999 221.536V223.846C84.9599 223.993 84.5566 224.095 84.1899 224.154C83.8232 224.213 83.4932 224.242 83.1999 224.242ZM91.9569 224.286C90.8569 224.286 89.8816 224.051 89.0309 223.582C88.1803 223.113 87.5129 222.431 87.0289 221.536C86.5596 220.641 86.3249 219.541 86.3249 218.236C86.3249 216.901 86.5743 215.794 87.0729 214.914C87.5716 214.034 88.2389 213.374 89.0749 212.934C89.9256 212.494 90.8789 212.274 91.9349 212.274C93.0203 212.274 93.9883 212.501 94.8389 212.956C95.6896 213.411 96.3569 214.085 96.8409 214.98C97.3396 215.875 97.5889 216.989 97.5889 218.324C97.5889 219.644 97.3396 220.751 96.8409 221.646C96.3569 222.526 95.6896 223.186 94.8389 223.626C93.9883 224.066 93.0276 224.286 91.9569 224.286ZM92.0449 222.394C92.7049 222.394 93.2696 222.24 93.7389 221.932C94.2083 221.624 94.5676 221.169 94.8169 220.568C95.0663 219.967 95.1909 219.248 95.1909 218.412C95.1909 217.547 95.0589 216.806 94.7949 216.19C94.5309 215.559 94.1496 215.075 93.6509 214.738C93.1669 214.401 92.5729 214.232 91.8689 214.232C91.2383 214.232 90.6809 214.386 90.1969 214.694C89.7276 214.987 89.3683 215.435 89.1189 216.036C88.8696 216.623 88.7449 217.341 88.7449 218.192C88.7449 219.527 89.0383 220.561 89.6249 221.294C90.2116 222.027 91.0183 222.394 92.0449 222.394ZM99.5803 224V218.038V212.56H101.648L101.538 216.52H101.912C102.044 215.625 102.25 214.863 102.528 214.232C102.807 213.601 103.188 213.125 103.672 212.802C104.156 212.465 104.758 212.296 105.476 212.296C105.623 212.296 105.784 212.303 105.96 212.318C106.136 212.333 106.334 212.377 106.554 212.45L106.444 214.958C106.224 214.87 105.997 214.811 105.762 214.782C105.528 214.738 105.315 214.716 105.124 214.716C104.538 214.716 104.039 214.885 103.628 215.222C103.218 215.545 102.873 215.999 102.594 216.586C102.33 217.158 102.125 217.825 101.978 218.588V224H99.5803ZM112.124 227.872C111.537 227.872 110.943 227.806 110.342 227.674C109.755 227.557 109.212 227.366 108.714 227.102C108.215 226.853 107.797 226.523 107.46 226.112L108.428 224.22C108.809 224.719 109.322 225.093 109.968 225.342C110.613 225.606 111.295 225.738 112.014 225.738C112.835 225.738 113.51 225.562 114.038 225.21C114.58 224.873 114.991 224.345 115.27 223.626C115.548 222.907 115.695 222.005 115.71 220.92L115.908 218.72H115.49C115.328 219.761 115.072 220.597 114.72 221.228C114.382 221.859 113.964 222.313 113.466 222.592C112.967 222.871 112.38 223.01 111.706 223.01C110.87 223.01 110.166 222.805 109.594 222.394C109.036 221.969 108.611 221.345 108.318 220.524C108.039 219.688 107.9 218.669 107.9 217.466V212.56H110.276V216.938C110.276 218.331 110.459 219.351 110.826 219.996C111.207 220.641 111.772 220.964 112.52 220.964C112.93 220.964 113.297 220.861 113.62 220.656C113.942 220.451 114.221 220.15 114.456 219.754C114.705 219.343 114.896 218.837 115.028 218.236C115.174 217.635 115.262 216.938 115.292 216.146V212.56H117.69V221.03C117.69 221.939 117.616 222.761 117.47 223.494C117.323 224.213 117.096 224.843 116.788 225.386C116.494 225.943 116.128 226.405 115.688 226.772C115.248 227.153 114.727 227.432 114.126 227.608C113.539 227.784 112.872 227.872 112.124 227.872ZM124.109 224.242C122.979 224.242 122.136 223.934 121.579 223.318C121.036 222.702 120.765 221.756 120.765 220.48V214.518H119.071L119.115 212.56H120.215C120.596 212.56 120.882 212.501 121.073 212.384C121.263 212.252 121.381 212.025 121.425 211.702L121.645 210.008H123.075V212.56H126.221V214.562H123.075V220.414C123.075 220.986 123.207 221.397 123.471 221.646C123.735 221.895 124.123 222.02 124.637 222.02C124.915 222.02 125.194 221.991 125.473 221.932C125.766 221.859 126.045 221.727 126.309 221.536V223.846C125.869 223.993 125.465 224.095 125.099 224.154C124.732 224.213 124.402 224.242 124.109 224.242ZM132.953 224.286C132.043 224.286 131.237 224.154 130.533 223.89C129.829 223.611 129.235 223.223 128.751 222.724C128.267 222.211 127.9 221.602 127.651 220.898C127.401 220.179 127.277 219.373 127.277 218.478C127.277 217.583 127.401 216.762 127.651 216.014C127.9 215.251 128.252 214.591 128.707 214.034C129.176 213.477 129.748 213.044 130.423 212.736C131.112 212.428 131.889 212.274 132.755 212.274C133.561 212.274 134.28 212.406 134.911 212.67C135.556 212.934 136.099 213.337 136.539 213.88C136.979 214.408 137.309 215.075 137.529 215.882C137.749 216.674 137.829 217.605 137.771 218.676L128.817 218.742V217.246L136.363 217.18L135.527 218.104C135.615 217.224 135.541 216.498 135.307 215.926C135.072 215.354 134.735 214.929 134.295 214.65C133.855 214.371 133.349 214.232 132.777 214.232C132.131 214.232 131.567 214.401 131.083 214.738C130.613 215.061 130.247 215.537 129.983 216.168C129.719 216.799 129.587 217.554 129.587 218.434C129.587 219.754 129.88 220.751 130.467 221.426C131.053 222.086 131.889 222.416 132.975 222.416C133.429 222.416 133.818 222.365 134.141 222.262C134.463 222.145 134.735 221.998 134.955 221.822C135.175 221.631 135.351 221.411 135.483 221.162C135.629 220.898 135.747 220.627 135.835 220.348L137.925 220.832C137.793 221.375 137.587 221.859 137.309 222.284C137.045 222.695 136.707 223.054 136.297 223.362C135.886 223.655 135.402 223.883 134.845 224.044C134.302 224.205 133.671 224.286 132.953 224.286ZM139.802 224V208.49H142.156V224H139.802ZM144.792 224V208.49H147.146V224H144.792ZM149.782 224V212.56H152.158V224H149.782ZM150.97 210.646C150.457 210.646 150.068 210.543 149.804 210.338C149.54 210.118 149.408 209.795 149.408 209.37C149.408 208.959 149.54 208.644 149.804 208.424C150.068 208.204 150.457 208.094 150.97 208.094C151.498 208.094 151.894 208.204 152.158 208.424C152.422 208.644 152.554 208.959 152.554 209.37C152.554 209.795 152.422 210.118 152.158 210.338C151.894 210.543 151.498 210.646 150.97 210.646ZM154.816 224V216.96V212.56H156.884L156.752 216.124H157.126C157.331 215.244 157.602 214.525 157.94 213.968C158.292 213.396 158.732 212.971 159.26 212.692C159.802 212.413 160.433 212.274 161.152 212.274C162.428 212.274 163.396 212.729 164.056 213.638C164.73 214.547 165.068 215.933 165.068 217.796V224H162.648V218.038C162.648 216.762 162.457 215.831 162.076 215.244C161.694 214.643 161.122 214.342 160.36 214.342C159.7 214.342 159.135 214.555 158.666 214.98C158.211 215.391 157.859 215.933 157.61 216.608C157.36 217.283 157.221 218.016 157.192 218.808V224H154.816ZM171.897 227.916C170.665 227.916 169.653 227.821 168.861 227.63C168.083 227.439 167.511 227.153 167.145 226.772C166.778 226.391 166.595 225.921 166.595 225.364C166.595 224.689 166.859 224.139 167.387 223.714C167.915 223.274 168.714 222.995 169.785 222.878V222.438C168.993 222.453 168.391 222.372 167.981 222.196C167.585 222.005 167.387 221.712 167.387 221.316C167.387 220.905 167.585 220.561 167.981 220.282C168.391 219.989 169.051 219.732 169.961 219.512V219.094C169.066 219.065 168.377 218.786 167.893 218.258C167.409 217.73 167.167 217.055 167.167 216.234C167.167 215.486 167.365 214.833 167.761 214.276C168.171 213.704 168.765 213.264 169.543 212.956C170.335 212.633 171.288 212.472 172.403 212.472H177.925V214.408L174.383 213.88V214.32C175.263 214.481 175.923 214.76 176.363 215.156C176.803 215.552 177.023 216.087 177.023 216.762C177.023 217.363 176.832 217.899 176.451 218.368C176.084 218.837 175.541 219.204 174.823 219.468C174.104 219.717 173.224 219.842 172.183 219.842C171.992 219.842 171.787 219.835 171.567 219.82C171.347 219.805 171.024 219.769 170.599 219.71C170.247 219.93 169.961 220.135 169.741 220.326C169.535 220.517 169.433 220.685 169.433 220.832C169.433 220.979 169.521 221.096 169.697 221.184C169.887 221.272 170.122 221.331 170.401 221.36C170.679 221.389 170.943 221.404 171.193 221.404H174.009C174.302 221.404 174.676 221.433 175.131 221.492C175.585 221.536 176.04 221.653 176.495 221.844C176.949 222.035 177.331 222.335 177.639 222.746C177.947 223.142 178.101 223.699 178.101 224.418C178.101 225.239 177.866 225.907 177.397 226.42C176.927 226.933 176.231 227.307 175.307 227.542C174.383 227.791 173.246 227.916 171.897 227.916ZM172.051 225.958C172.989 225.958 173.745 225.899 174.317 225.782C174.889 225.679 175.307 225.503 175.571 225.254C175.835 225.005 175.967 224.689 175.967 224.308C175.967 223.956 175.879 223.685 175.703 223.494C175.527 223.289 175.307 223.149 175.043 223.076C174.793 222.988 174.537 222.937 174.273 222.922C174.009 222.907 173.781 222.9 173.591 222.9H170.973C170.195 223.032 169.653 223.259 169.345 223.582C169.037 223.89 168.883 224.235 168.883 224.616C168.883 224.983 169.015 225.261 169.279 225.452C169.543 225.657 169.909 225.789 170.379 225.848C170.863 225.921 171.42 225.958 172.051 225.958ZM172.205 218.434C173.055 218.434 173.693 218.251 174.119 217.884C174.559 217.503 174.779 217.004 174.779 216.388C174.779 215.728 174.559 215.193 174.119 214.782C173.679 214.357 173.026 214.144 172.161 214.144C171.31 214.144 170.657 214.349 170.203 214.76C169.763 215.171 169.543 215.691 169.543 216.322C169.543 216.747 169.645 217.121 169.851 217.444C170.056 217.752 170.349 217.994 170.731 218.17C171.127 218.346 171.618 218.434 172.205 218.434Z" fill="#222021"/>
<path d="M361.723 204.286C360.814 204.286 360.007 204.154 359.303 203.89C358.599 203.611 358.005 203.223 357.521 202.724C357.037 202.211 356.67 201.602 356.421 200.898C356.172 200.179 356.047 199.373 356.047 198.478C356.047 197.583 356.172 196.762 356.421 196.014C356.67 195.251 357.022 194.591 357.477 194.034C357.946 193.477 358.518 193.044 359.193 192.736C359.882 192.428 360.66 192.274 361.525 192.274C362.332 192.274 363.05 192.406 363.681 192.67C364.326 192.934 364.869 193.337 365.309 193.88C365.749 194.408 366.079 195.075 366.299 195.882C366.519 196.674 366.6 197.605 366.541 198.676L357.587 198.742V197.246L365.133 197.18L364.297 198.104C364.385 197.224 364.312 196.498 364.077 195.926C363.842 195.354 363.505 194.929 363.065 194.65C362.625 194.371 362.119 194.232 361.547 194.232C360.902 194.232 360.337 194.401 359.853 194.738C359.384 195.061 359.017 195.537 358.753 196.168C358.489 196.799 358.357 197.554 358.357 198.434C358.357 199.754 358.65 200.751 359.237 201.426C359.824 202.086 360.66 202.416 361.745 202.416C362.2 202.416 362.588 202.365 362.911 202.262C363.234 202.145 363.505 201.998 363.725 201.822C363.945 201.631 364.121 201.411 364.253 201.162C364.4 200.898 364.517 200.627 364.605 200.348L366.695 200.832C366.563 201.375 366.358 201.859 366.079 202.284C365.815 202.695 365.478 203.054 365.067 203.362C364.656 203.655 364.172 203.883 363.615 204.044C363.072 204.205 362.442 204.286 361.723 204.286ZM372.749 204.286C371.781 204.286 370.945 204.037 370.241 203.538C369.537 203.025 369.002 202.321 368.635 201.426C368.269 200.517 368.085 199.468 368.085 198.28C368.085 197.121 368.254 196.095 368.591 195.2C368.943 194.291 369.457 193.579 370.131 193.066C370.821 192.553 371.664 192.296 372.661 192.296C373.453 192.296 374.106 192.457 374.619 192.78C375.133 193.088 375.543 193.513 375.851 194.056C376.174 194.599 376.416 195.2 376.577 195.86H377.017C376.944 195.435 376.871 194.995 376.797 194.54C376.724 194.071 376.665 193.623 376.621 193.198C376.577 192.758 376.555 192.369 376.555 192.032V188.49H378.975V198.368V204H376.885L376.973 200.832H376.577C376.401 201.551 376.152 202.167 375.829 202.68C375.507 203.193 375.089 203.589 374.575 203.868C374.077 204.147 373.468 204.286 372.749 204.286ZM373.409 202.262C373.923 202.262 374.377 202.145 374.773 201.91C375.169 201.675 375.499 201.367 375.763 200.986C376.027 200.605 376.225 200.194 376.357 199.754C376.504 199.299 376.577 198.874 376.577 198.478V198.17C376.577 197.877 376.533 197.561 376.445 197.224C376.372 196.872 376.247 196.527 376.071 196.19C375.91 195.838 375.705 195.523 375.455 195.244C375.206 194.965 374.905 194.745 374.553 194.584C374.216 194.408 373.835 194.32 373.409 194.32C372.793 194.32 372.273 194.496 371.847 194.848C371.437 195.185 371.121 195.655 370.901 196.256C370.681 196.857 370.571 197.547 370.571 198.324C370.571 199.116 370.681 199.813 370.901 200.414C371.136 201.001 371.466 201.455 371.891 201.778C372.317 202.101 372.823 202.262 373.409 202.262ZM385.338 204.286C384.047 204.286 383.072 203.846 382.412 202.966C381.752 202.071 381.422 200.729 381.422 198.94V192.56H383.82V198.676C383.82 199.879 384.003 200.773 384.37 201.36C384.736 201.947 385.316 202.24 386.108 202.24C386.548 202.24 386.936 202.13 387.274 201.91C387.611 201.69 387.904 201.382 388.154 200.986C388.418 200.59 388.623 200.128 388.77 199.6C388.931 199.057 389.041 198.463 389.1 197.818V192.56H391.476V199.248V204H389.452L389.562 200.37H389.188C388.997 201.279 388.726 202.027 388.374 202.614C388.036 203.186 387.611 203.611 387.098 203.89C386.599 204.154 386.012 204.286 385.338 204.286ZM399.123 204.286C398.141 204.286 397.29 204.132 396.571 203.824C395.867 203.516 395.288 203.091 394.833 202.548C394.379 202.005 394.041 201.382 393.821 200.678C393.601 199.974 393.491 199.219 393.491 198.412C393.491 197.547 393.609 196.747 393.843 196.014C394.078 195.266 394.423 194.613 394.877 194.056C395.347 193.484 395.926 193.044 396.615 192.736C397.305 192.428 398.104 192.274 399.013 192.274C399.908 192.274 400.685 192.428 401.345 192.736C402.02 193.029 402.57 193.455 402.995 194.012C403.421 194.555 403.699 195.193 403.831 195.926L401.587 196.608C401.543 196.183 401.419 195.787 401.213 195.42C401.008 195.053 400.715 194.767 400.333 194.562C399.952 194.342 399.49 194.232 398.947 194.232C398.434 194.232 397.987 194.335 397.605 194.54C397.224 194.731 396.909 195.017 396.659 195.398C396.41 195.765 396.219 196.197 396.087 196.696C395.97 197.195 395.911 197.745 395.911 198.346C395.911 199.167 396.021 199.886 396.241 200.502C396.476 201.103 396.835 201.573 397.319 201.91C397.803 202.233 398.412 202.394 399.145 202.394C399.761 202.394 400.267 202.284 400.663 202.064C401.059 201.844 401.367 201.551 401.587 201.184C401.807 200.803 401.954 200.363 402.027 199.864L404.161 200.37C404.073 200.971 403.897 201.521 403.633 202.02C403.369 202.504 403.025 202.915 402.599 203.252C402.174 203.589 401.668 203.846 401.081 204.022C400.509 204.198 399.857 204.286 399.123 204.286ZM408.505 204.286C407.875 204.286 407.31 204.169 406.811 203.934C406.313 203.685 405.917 203.318 405.623 202.834C405.345 202.35 405.205 201.749 405.205 201.03C405.205 200.458 405.308 199.967 405.513 199.556C405.733 199.131 406.056 198.779 406.481 198.5C406.921 198.207 407.479 197.972 408.153 197.796C408.828 197.605 409.627 197.444 410.551 197.312C411.065 197.239 411.483 197.165 411.805 197.092C412.143 197.019 412.385 196.901 412.531 196.74C412.693 196.579 412.773 196.337 412.773 196.014C412.773 195.515 412.597 195.09 412.245 194.738C411.908 194.371 411.358 194.188 410.595 194.188C410.17 194.188 409.745 194.261 409.319 194.408C408.909 194.555 408.549 194.797 408.241 195.134C407.948 195.457 407.75 195.897 407.647 196.454L405.491 195.772C405.623 195.215 405.836 194.723 406.129 194.298C406.423 193.858 406.789 193.491 407.229 193.198C407.669 192.89 408.175 192.663 408.747 192.516C409.334 192.355 409.972 192.274 410.661 192.274C411.673 192.274 412.509 192.443 413.169 192.78C413.829 193.117 414.321 193.638 414.643 194.342C414.981 195.031 415.149 195.919 415.149 197.004V199.336C415.149 199.82 415.157 200.333 415.171 200.876C415.201 201.404 415.23 201.939 415.259 202.482C415.303 203.01 415.355 203.516 415.413 204H413.235C413.191 203.56 413.147 203.105 413.103 202.636C413.074 202.167 413.045 201.69 413.015 201.206H412.685C412.48 201.763 412.187 202.277 411.805 202.746C411.439 203.215 410.977 203.589 410.419 203.868C409.877 204.147 409.239 204.286 408.505 204.286ZM409.341 202.438C409.649 202.438 409.957 202.387 410.265 202.284C410.588 202.181 410.903 202.027 411.211 201.822C411.534 201.602 411.827 201.323 412.091 200.986C412.37 200.649 412.612 200.245 412.817 199.776L412.795 197.708L413.367 197.818C413.118 198.038 412.803 198.207 412.421 198.324C412.055 198.441 411.651 198.537 411.211 198.61C410.771 198.669 410.331 198.742 409.891 198.83C409.466 198.903 409.07 199.013 408.703 199.16C408.351 199.292 408.065 199.483 407.845 199.732C407.64 199.981 407.537 200.326 407.537 200.766C407.537 201.309 407.706 201.727 408.043 202.02C408.381 202.299 408.813 202.438 409.341 202.438ZM421.472 204.242C420.343 204.242 419.499 203.934 418.942 203.318C418.399 202.702 418.128 201.756 418.128 200.48V194.518H416.434L416.478 192.56H417.578C417.959 192.56 418.245 192.501 418.436 192.384C418.627 192.252 418.744 192.025 418.788 191.702L419.008 190.008H420.438V192.56H423.584V194.562H420.438V200.414C420.438 200.986 420.57 201.397 420.834 201.646C421.098 201.895 421.487 202.02 422 202.02C422.279 202.02 422.557 201.991 422.836 201.932C423.129 201.859 423.408 201.727 423.672 201.536V203.846C423.232 203.993 422.829 204.095 422.462 204.154C422.095 204.213 421.765 204.242 421.472 204.242ZM430.316 204.286C429.407 204.286 428.6 204.154 427.896 203.89C427.192 203.611 426.598 203.223 426.114 202.724C425.63 202.211 425.263 201.602 425.014 200.898C424.765 200.179 424.64 199.373 424.64 198.478C424.64 197.583 424.765 196.762 425.014 196.014C425.263 195.251 425.615 194.591 426.07 194.034C426.539 193.477 427.111 193.044 427.786 192.736C428.475 192.428 429.253 192.274 430.118 192.274C430.925 192.274 431.643 192.406 432.274 192.67C432.919 192.934 433.462 193.337 433.902 193.88C434.342 194.408 434.672 195.075 434.892 195.882C435.112 196.674 435.193 197.605 435.134 198.676L426.18 198.742V197.246L433.726 197.18L432.89 198.104C432.978 197.224 432.905 196.498 432.67 195.926C432.435 195.354 432.098 194.929 431.658 194.65C431.218 194.371 430.712 194.232 430.14 194.232C429.495 194.232 428.93 194.401 428.446 194.738C427.977 195.061 427.61 195.537 427.346 196.168C427.082 196.799 426.95 197.554 426.95 198.434C426.95 199.754 427.243 200.751 427.83 201.426C428.417 202.086 429.253 202.416 430.338 202.416C430.793 202.416 431.181 202.365 431.504 202.262C431.827 202.145 432.098 201.998 432.318 201.822C432.538 201.631 432.714 201.411 432.846 201.162C432.993 200.898 433.11 200.627 433.198 200.348L435.288 200.832C435.156 201.375 434.951 201.859 434.672 202.284C434.408 202.695 434.071 203.054 433.66 203.362C433.249 203.655 432.765 203.883 432.208 204.044C431.665 204.205 431.035 204.286 430.316 204.286ZM443.723 204L440.753 192.56H443.217L445.263 202.02H445.637L447.881 192.56H450.873L453.161 202.02H453.513L455.537 192.56H457.979L454.987 204H451.665L449.487 194.562H449.201L447.045 204H443.723ZM459.456 204V196.982V188.49H461.876V192.054C461.876 192.362 461.869 192.685 461.854 193.022C461.839 193.345 461.81 193.675 461.766 194.012C461.722 194.349 461.678 194.687 461.634 195.024C461.59 195.361 461.539 195.706 461.48 196.058H461.876C462.096 195.237 462.367 194.547 462.69 193.99C463.027 193.418 463.445 192.993 463.944 192.714C464.457 192.421 465.073 192.274 465.792 192.274C467.112 192.274 468.095 192.736 468.74 193.66C469.385 194.569 469.708 195.941 469.708 197.774V204H467.288V198.082C467.288 196.791 467.09 195.845 466.694 195.244C466.313 194.643 465.733 194.342 464.956 194.342C464.311 194.342 463.768 194.533 463.328 194.914C462.903 195.295 462.565 195.809 462.316 196.454C462.067 197.099 461.905 197.833 461.832 198.654V204H459.456ZM472.181 204V192.56H474.557V204H472.181ZM473.369 190.646C472.855 190.646 472.467 190.543 472.203 190.338C471.939 190.118 471.807 189.795 471.807 189.37C471.807 188.959 471.939 188.644 472.203 188.424C472.467 188.204 472.855 188.094 473.369 188.094C473.897 188.094 474.293 188.204 474.557 188.424C474.821 188.644 474.953 188.959 474.953 189.37C474.953 189.795 474.821 190.118 474.557 190.338C474.293 190.543 473.897 190.646 473.369 190.646ZM477.214 204V188.49H479.568V204H477.214ZM487.243 204.286C486.333 204.286 485.527 204.154 484.823 203.89C484.119 203.611 483.525 203.223 483.041 202.724C482.557 202.211 482.19 201.602 481.941 200.898C481.691 200.179 481.567 199.373 481.567 198.478C481.567 197.583 481.691 196.762 481.941 196.014C482.19 195.251 482.542 194.591 482.997 194.034C483.466 193.477 484.038 193.044 484.713 192.736C485.402 192.428 486.179 192.274 487.045 192.274C487.851 192.274 488.57 192.406 489.201 192.67C489.846 192.934 490.389 193.337 490.829 193.88C491.269 194.408 491.599 195.075 491.819 195.882C492.039 196.674 492.119 197.605 492.061 198.676L483.107 198.742V197.246L490.653 197.18L489.817 198.104C489.905 197.224 489.831 196.498 489.597 195.926C489.362 195.354 489.025 194.929 488.585 194.65C488.145 194.371 487.639 194.232 487.067 194.232C486.421 194.232 485.857 194.401 485.373 194.738C484.903 195.061 484.537 195.537 484.273 196.168C484.009 196.799 483.877 197.554 483.877 198.434C483.877 199.754 484.17 200.751 484.757 201.426C485.343 202.086 486.179 202.416 487.265 202.416C487.719 202.416 488.108 202.365 488.431 202.262C488.753 202.145 489.025 201.998 489.245 201.822C489.465 201.631 489.641 201.411 489.773 201.162C489.919 200.898 490.037 200.627 490.125 200.348L492.215 200.832C492.083 201.375 491.877 201.859 491.599 202.284C491.335 202.695 490.997 203.054 490.587 203.362C490.176 203.655 489.692 203.883 489.135 204.044C488.592 204.205 487.961 204.286 487.243 204.286ZM369.936 224.286C369.027 224.286 368.22 224.154 367.516 223.89C366.812 223.611 366.218 223.223 365.734 222.724C365.25 222.211 364.883 221.602 364.634 220.898C364.385 220.179 364.26 219.373 364.26 218.478C364.26 217.583 364.385 216.762 364.634 216.014C364.883 215.251 365.235 214.591 365.69 214.034C366.159 213.477 366.731 213.044 367.406 212.736C368.095 212.428 368.873 212.274 369.738 212.274C370.545 212.274 371.263 212.406 371.894 212.67C372.539 212.934 373.082 213.337 373.522 213.88C373.962 214.408 374.292 215.075 374.512 215.882C374.732 216.674 374.813 217.605 374.754 218.676L365.8 218.742V217.246L373.346 217.18L372.51 218.104C372.598 217.224 372.525 216.498 372.29 215.926C372.055 215.354 371.718 214.929 371.278 214.65C370.838 214.371 370.332 214.232 369.76 214.232C369.115 214.232 368.55 214.401 368.066 214.738C367.597 215.061 367.23 215.537 366.966 216.168C366.702 216.799 366.57 217.554 366.57 218.434C366.57 219.754 366.863 220.751 367.45 221.426C368.037 222.086 368.873 222.416 369.958 222.416C370.413 222.416 370.801 222.365 371.124 222.262C371.447 222.145 371.718 221.998 371.938 221.822C372.158 221.631 372.334 221.411 372.466 221.162C372.613 220.898 372.73 220.627 372.818 220.348L374.908 220.832C374.776 221.375 374.571 221.859 374.292 222.284C374.028 222.695 373.691 223.054 373.28 223.362C372.869 223.655 372.385 223.883 371.828 224.044C371.285 224.205 370.655 224.286 369.936 224.286ZM376.785 224V216.96V212.56H378.853L378.721 216.124H379.095C379.3 215.244 379.572 214.525 379.909 213.968C380.261 213.396 380.701 212.971 381.229 212.692C381.772 212.413 382.402 212.274 383.121 212.274C384.397 212.274 385.365 212.729 386.025 213.638C386.7 214.547 387.037 215.933 387.037 217.796V224H384.617V218.038C384.617 216.762 384.426 215.831 384.045 215.244C383.664 214.643 383.092 214.342 382.329 214.342C381.669 214.342 381.104 214.555 380.635 214.98C380.18 215.391 379.828 215.933 379.579 216.608C379.33 217.283 379.19 218.016 379.161 218.808V224H376.785ZM393.272 224.242C392.143 224.242 391.3 223.934 390.742 223.318C390.2 222.702 389.928 221.756 389.928 220.48V214.518H388.234L388.278 212.56H389.378C389.76 212.56 390.046 212.501 390.236 212.384C390.427 212.252 390.544 212.025 390.588 211.702L390.808 210.008H392.238V212.56H395.384V214.562H392.238V220.414C392.238 220.986 392.37 221.397 392.634 221.646C392.898 221.895 393.287 222.02 393.8 222.02C394.079 222.02 394.358 221.991 394.636 221.932C394.93 221.859 395.208 221.727 395.472 221.536V223.846C395.032 223.993 394.629 224.095 394.262 224.154C393.896 224.213 393.566 224.242 393.272 224.242ZM402.116 224.286C401.207 224.286 400.4 224.154 399.696 223.89C398.992 223.611 398.398 223.223 397.914 222.724C397.43 222.211 397.064 221.602 396.814 220.898C396.565 220.179 396.44 219.373 396.44 218.478C396.44 217.583 396.565 216.762 396.814 216.014C397.064 215.251 397.416 214.591 397.87 214.034C398.34 213.477 398.912 213.044 399.586 212.736C400.276 212.428 401.053 212.274 401.918 212.274C402.725 212.274 403.444 212.406 404.074 212.67C404.72 212.934 405.262 213.337 405.702 213.88C406.142 214.408 406.472 215.075 406.692 215.882C406.912 216.674 406.993 217.605 406.934 218.676L397.98 218.742V217.246L405.526 217.18L404.69 218.104C404.778 217.224 404.705 216.498 404.47 215.926C404.236 215.354 403.898 214.929 403.458 214.65C403.018 214.371 402.512 214.232 401.94 214.232C401.295 214.232 400.73 214.401 400.246 214.738C399.777 215.061 399.41 215.537 399.146 216.168C398.882 216.799 398.75 217.554 398.75 218.434C398.75 219.754 399.044 220.751 399.63 221.426C400.217 222.086 401.053 222.416 402.138 222.416C402.593 222.416 402.982 222.365 403.304 222.262C403.627 222.145 403.898 221.998 404.118 221.822C404.338 221.631 404.514 221.411 404.646 221.162C404.793 220.898 404.91 220.627 404.998 220.348L407.088 220.832C406.956 221.375 406.751 221.859 406.472 222.284C406.208 222.695 405.871 223.054 405.46 223.362C405.05 223.655 404.566 223.883 404.008 224.044C403.466 224.205 402.835 224.286 402.116 224.286ZM408.965 224V218.038V212.56H411.033L410.923 216.52H411.297C411.429 215.625 411.635 214.863 411.913 214.232C412.192 213.601 412.573 213.125 413.057 212.802C413.541 212.465 414.143 212.296 414.861 212.296C415.008 212.296 415.169 212.303 415.345 212.318C415.521 212.333 415.719 212.377 415.939 212.45L415.829 214.958C415.609 214.87 415.382 214.811 415.147 214.782C414.913 214.738 414.7 214.716 414.509 214.716C413.923 214.716 413.424 214.885 413.013 215.222C412.603 215.545 412.258 215.999 411.979 216.586C411.715 217.158 411.51 217.825 411.363 218.588V224H408.965ZM421.693 224.242C420.563 224.242 419.72 223.934 419.163 223.318C418.62 222.702 418.349 221.756 418.349 220.48V214.518H416.655L416.699 212.56H417.799C418.18 212.56 418.466 212.501 418.657 212.384C418.847 212.252 418.965 212.025 419.009 211.702L419.229 210.008H420.659V212.56H423.805V214.562H420.659V220.414C420.659 220.986 420.791 221.397 421.055 221.646C421.319 221.895 421.707 222.02 422.221 222.02C422.499 222.02 422.778 221.991 423.057 221.932C423.35 221.859 423.629 221.727 423.893 221.536V223.846C423.453 223.993 423.049 224.095 422.683 224.154C422.316 224.213 421.986 224.242 421.693 224.242ZM428.246 224.286C427.615 224.286 427.051 224.169 426.552 223.934C426.053 223.685 425.657 223.318 425.364 222.834C425.085 222.35 424.946 221.749 424.946 221.03C424.946 220.458 425.049 219.967 425.254 219.556C425.474 219.131 425.797 218.779 426.222 218.5C426.662 218.207 427.219 217.972 427.894 217.796C428.569 217.605 429.368 217.444 430.292 217.312C430.805 217.239 431.223 217.165 431.546 217.092C431.883 217.019 432.125 216.901 432.272 216.74C432.433 216.579 432.514 216.337 432.514 216.014C432.514 215.515 432.338 215.09 431.986 214.738C431.649 214.371 431.099 214.188 430.336 214.188C429.911 214.188 429.485 214.261 429.06 214.408C428.649 214.555 428.29 214.797 427.982 215.134C427.689 215.457 427.491 215.897 427.388 216.454L425.232 215.772C425.364 215.215 425.577 214.723 425.87 214.298C426.163 213.858 426.53 213.491 426.97 213.198C427.41 212.89 427.916 212.663 428.488 212.516C429.075 212.355 429.713 212.274 430.402 212.274C431.414 212.274 432.25 212.443 432.91 212.78C433.57 213.117 434.061 213.638 434.384 214.342C434.721 215.031 434.89 215.919 434.89 217.004V219.336C434.89 219.82 434.897 220.333 434.912 220.876C434.941 221.404 434.971 221.939 435 222.482C435.044 223.01 435.095 223.516 435.154 224H432.976C432.932 223.56 432.888 223.105 432.844 222.636C432.815 222.167 432.785 221.69 432.756 221.206H432.426C432.221 221.763 431.927 222.277 431.546 222.746C431.179 223.215 430.717 223.589 430.16 223.868C429.617 224.147 428.979 224.286 428.246 224.286ZM429.082 222.438C429.39 222.438 429.698 222.387 430.006 222.284C430.329 222.181 430.644 222.027 430.952 221.822C431.275 221.602 431.568 221.323 431.832 220.986C432.111 220.649 432.353 220.245 432.558 219.776L432.536 217.708L433.108 217.818C432.859 218.038 432.543 218.207 432.162 218.324C431.795 218.441 431.392 218.537 430.952 218.61C430.512 218.669 430.072 218.742 429.632 218.83C429.207 218.903 428.811 219.013 428.444 219.16C428.092 219.292 427.806 219.483 427.586 219.732C427.381 219.981 427.278 220.326 427.278 220.766C427.278 221.309 427.447 221.727 427.784 222.02C428.121 222.299 428.554 222.438 429.082 222.438ZM437.429 224V212.56H439.805V224H437.429ZM438.617 210.646C438.103 210.646 437.715 210.543 437.451 210.338C437.187 210.118 437.055 209.795 437.055 209.37C437.055 208.959 437.187 208.644 437.451 208.424C437.715 208.204 438.103 208.094 438.617 208.094C439.145 208.094 439.541 208.204 439.805 208.424C440.069 208.644 440.201 208.959 440.201 209.37C440.201 209.795 440.069 210.118 439.805 210.338C439.541 210.543 439.145 210.646 438.617 210.646ZM442.462 224V216.96V212.56H444.53L444.398 216.124H444.772C444.977 215.244 445.249 214.525 445.586 213.968C445.938 213.396 446.378 212.971 446.906 212.692C447.449 212.413 448.079 212.274 448.798 212.274C450.074 212.274 451.042 212.729 451.702 213.638C452.377 214.547 452.714 215.933 452.714 217.796V224H450.294V218.038C450.294 216.762 450.103 215.831 449.722 215.244C449.341 214.643 448.769 214.342 448.006 214.342C447.346 214.342 446.781 214.555 446.312 214.98C445.857 215.391 445.505 215.933 445.256 216.608C445.007 217.283 444.867 218.016 444.838 218.808V224H442.462ZM455.187 224V212.56H457.563V224H455.187ZM456.375 210.646C455.861 210.646 455.473 210.543 455.209 210.338C454.945 210.118 454.813 209.795 454.813 209.37C454.813 208.959 454.945 208.644 455.209 208.424C455.473 208.204 455.861 208.094 456.375 208.094C456.903 208.094 457.299 208.204 457.563 208.424C457.827 208.644 457.959 208.959 457.959 209.37C457.959 209.795 457.827 210.118 457.563 210.338C457.299 210.543 456.903 210.646 456.375 210.646ZM460.22 224V216.96V212.56H462.288L462.156 216.124H462.53C462.735 215.244 463.007 214.525 463.344 213.968C463.696 213.396 464.136 212.971 464.664 212.692C465.207 212.413 465.837 212.274 466.556 212.274C467.832 212.274 468.8 212.729 469.46 213.638C470.135 214.547 470.472 215.933 470.472 217.796V224H468.052V218.038C468.052 216.762 467.861 215.831 467.48 215.244C467.099 214.643 466.527 214.342 465.764 214.342C465.104 214.342 464.539 214.555 464.07 214.98C463.615 215.391 463.263 215.933 463.014 216.608C462.765 217.283 462.625 218.016 462.596 218.808V224H460.22ZM477.301 227.916C476.069 227.916 475.057 227.821 474.265 227.63C473.487 227.439 472.915 227.153 472.549 226.772C472.182 226.391 471.999 225.921 471.999 225.364C471.999 224.689 472.263 224.139 472.791 223.714C473.319 223.274 474.118 222.995 475.189 222.878V222.438C474.397 222.453 473.795 222.372 473.385 222.196C472.989 222.005 472.791 221.712 472.791 221.316C472.791 220.905 472.989 220.561 473.385 220.282C473.795 219.989 474.455 219.732 475.365 219.512V219.094C474.47 219.065 473.781 218.786 473.297 218.258C472.813 217.73 472.571 217.055 472.571 216.234C472.571 215.486 472.769 214.833 473.165 214.276C473.575 213.704 474.169 213.264 474.947 212.956C475.739 212.633 476.692 212.472 477.807 212.472H483.329V214.408L479.787 213.88V214.32C480.667 214.481 481.327 214.76 481.767 215.156C482.207 215.552 482.427 216.087 482.427 216.762C482.427 217.363 482.236 217.899 481.855 218.368C481.488 218.837 480.945 219.204 480.227 219.468C479.508 219.717 478.628 219.842 477.587 219.842C477.396 219.842 477.191 219.835 476.971 219.82C476.751 219.805 476.428 219.769 476.003 219.71C475.651 219.93 475.365 220.135 475.145 220.326C474.939 220.517 474.837 220.685 474.837 220.832C474.837 220.979 474.925 221.096 475.101 221.184C475.291 221.272 475.526 221.331 475.805 221.36C476.083 221.389 476.347 221.404 476.597 221.404H479.413C479.706 221.404 480.08 221.433 480.535 221.492C480.989 221.536 481.444 221.653 481.899 221.844C482.353 222.035 482.735 222.335 483.043 222.746C483.351 223.142 483.505 223.699 483.505 224.418C483.505 225.239 483.27 225.907 482.801 226.42C482.331 226.933 481.635 227.307 480.711 227.542C479.787 227.791 478.65 227.916 477.301 227.916ZM477.455 225.958C478.393 225.958 479.149 225.899 479.721 225.782C480.293 225.679 480.711 225.503 480.975 225.254C481.239 225.005 481.371 224.689 481.371 224.308C481.371 223.956 481.283 223.685 481.107 223.494C480.931 223.289 480.711 223.149 480.447 223.076C480.197 222.988 479.941 222.937 479.677 222.922C479.413 222.907 479.185 222.9 478.995 222.9H476.377C475.599 223.032 475.057 223.259 474.749 223.582C474.441 223.89 474.287 224.235 474.287 224.616C474.287 224.983 474.419 225.261 474.683 225.452C474.947 225.657 475.313 225.789 475.783 225.848C476.267 225.921 476.824 225.958 477.455 225.958ZM477.609 218.434C478.459 218.434 479.097 218.251 479.523 217.884C479.963 217.503 480.183 217.004 480.183 216.388C480.183 215.728 479.963 215.193 479.523 214.782C479.083 214.357 478.43 214.144 477.565 214.144C476.714 214.144 476.061 214.349 475.607 214.76C475.167 215.171 474.947 215.691 474.947 216.322C474.947 216.747 475.049 217.121 475.255 217.444C475.46 217.752 475.753 217.994 476.135 218.17C476.531 218.346 477.022 218.434 477.609 218.434Z" fill="#222021"/>
<path d="M217.088 84V81.976H221.356C222.295 81.976 223.072 81.7633 223.688 81.338C224.304 80.9127 224.759 80.3113 225.052 79.534C225.36 78.7567 225.514 77.84 225.514 76.784C225.514 75.8747 225.419 75.09 225.228 74.43C225.038 73.7553 224.744 73.2053 224.348 72.78C223.967 72.3547 223.476 72.0393 222.874 71.834C222.288 71.614 221.598 71.504 220.806 71.504H217.088V69.48H220.74C222.412 69.48 223.784 69.766 224.854 70.338C225.925 70.91 226.717 71.7313 227.23 72.802C227.744 73.858 228 75.134 228 76.63C228 77.6567 227.883 78.5733 227.648 79.38C227.414 80.172 227.091 80.8613 226.68 81.448C226.284 82.02 225.808 82.4967 225.25 82.878C224.708 83.2593 224.106 83.5453 223.446 83.736C222.801 83.912 222.126 84 221.422 84H217.088ZM215.878 84V69.48H218.276V84H215.878ZM235.292 84.286C234.382 84.286 233.576 84.154 232.872 83.89C232.168 83.6113 231.574 83.2227 231.09 82.724C230.606 82.2107 230.239 81.602 229.99 80.898C229.74 80.1793 229.616 79.3727 229.616 78.478C229.616 77.5833 229.74 76.762 229.99 76.014C230.239 75.2513 230.591 74.5913 231.046 74.034C231.515 73.4767 232.087 73.044 232.762 72.736C233.451 72.428 234.228 72.274 235.094 72.274C235.9 72.274 236.619 72.406 237.25 72.67C237.895 72.934 238.438 73.3373 238.878 73.88C239.318 74.408 239.648 75.0753 239.868 75.882C240.088 76.674 240.168 77.6053 240.11 78.676L231.156 78.742V77.246L238.702 77.18L237.866 78.104C237.954 77.224 237.88 76.498 237.646 75.926C237.411 75.354 237.074 74.9287 236.634 74.65C236.194 74.3713 235.688 74.232 235.116 74.232C234.47 74.232 233.906 74.4007 233.422 74.738C232.952 75.0607 232.586 75.5373 232.322 76.168C232.058 76.7987 231.926 77.554 231.926 78.434C231.926 79.754 232.219 80.7513 232.806 81.426C233.392 82.086 234.228 82.416 235.314 82.416C235.768 82.416 236.157 82.3647 236.48 82.262C236.802 82.1447 237.074 81.998 237.294 81.822C237.514 81.6313 237.69 81.4113 237.822 81.162C237.968 80.898 238.086 80.6267 238.174 80.348L240.264 80.832C240.132 81.3747 239.926 81.8587 239.648 82.284C239.384 82.6947 239.046 83.054 238.636 83.362C238.225 83.6553 237.741 83.8827 237.184 84.044C236.641 84.2053 236.01 84.286 235.292 84.286ZM242.141 84V68.49H244.495V84H242.141ZM247.131 84V72.56H249.507V84H247.131ZM248.319 70.646C247.806 70.646 247.417 70.5433 247.153 70.338C246.889 70.118 246.757 69.7953 246.757 69.37C246.757 68.9593 246.889 68.644 247.153 68.424C247.417 68.204 247.806 68.094 248.319 68.094C248.847 68.094 249.243 68.204 249.507 68.424C249.771 68.644 249.903 68.9593 249.903 69.37C249.903 69.7953 249.771 70.118 249.507 70.338C249.243 70.5433 248.847 70.646 248.319 70.646ZM254.87 84L250.866 72.582H253.528L256.388 82.042H256.718L259.6 72.582H262.174L258.17 84H254.87ZM268.316 84.286C267.406 84.286 266.6 84.154 265.896 83.89C265.192 83.6113 264.598 83.2227 264.114 82.724C263.63 82.2107 263.263 81.602 263.014 80.898C262.764 80.1793 262.64 79.3727 262.64 78.478C262.64 77.5833 262.764 76.762 263.014 76.014C263.263 75.2513 263.615 74.5913 264.07 74.034C264.539 73.4767 265.111 73.044 265.786 72.736C266.475 72.428 267.252 72.274 268.118 72.274C268.924 72.274 269.643 72.406 270.274 72.67C270.919 72.934 271.462 73.3373 271.902 73.88C272.342 74.408 272.672 75.0753 272.892 75.882C273.112 76.674 273.192 77.6053 273.134 78.676L264.18 78.742V77.246L271.726 77.18L270.89 78.104C270.978 77.224 270.904 76.498 270.67 75.926C270.435 75.354 270.098 74.9287 269.658 74.65C269.218 74.3713 268.712 74.232 268.14 74.232C267.494 74.232 266.93 74.4007 266.446 74.738C265.976 75.0607 265.61 75.5373 265.346 76.168C265.082 76.7987 264.95 77.554 264.95 78.434C264.95 79.754 265.243 80.7513 265.83 81.426C266.416 82.086 267.252 82.416 268.338 82.416C268.792 82.416 269.181 82.3647 269.504 82.262C269.826 82.1447 270.098 81.998 270.318 81.822C270.538 81.6313 270.714 81.4113 270.846 81.162C270.992 80.898 271.11 80.6267 271.198 80.348L273.288 80.832C273.156 81.3747 272.95 81.8587 272.672 82.284C272.408 82.6947 272.07 83.054 271.66 83.362C271.249 83.6553 270.765 83.8827 270.208 84.044C269.665 84.2053 269.034 84.286 268.316 84.286ZM275.165 84V78.038V72.56H277.233L277.123 76.52H277.497C277.629 75.6253 277.834 74.8627 278.113 74.232C278.391 73.6013 278.773 73.1247 279.257 72.802C279.741 72.4647 280.342 72.296 281.061 72.296C281.207 72.296 281.369 72.3033 281.545 72.318C281.721 72.3327 281.919 72.3767 282.139 72.45L282.029 74.958C281.809 74.87 281.581 74.8113 281.347 74.782C281.112 74.738 280.899 74.716 280.709 74.716C280.122 74.716 279.623 74.8847 279.213 75.222C278.802 75.5447 278.457 75.9993 278.179 76.586C277.915 77.158 277.709 77.8253 277.563 78.588V84H275.165ZM288.304 84V76.982V68.49H290.724V72.054C290.724 72.362 290.716 72.6847 290.702 73.022C290.687 73.3447 290.658 73.6747 290.614 74.012C290.57 74.3493 290.526 74.6867 290.482 75.024C290.438 75.3613 290.386 75.706 290.328 76.058H290.724C290.944 75.2367 291.215 74.5473 291.538 73.99C291.875 73.418 292.293 72.9927 292.792 72.714C293.305 72.4207 293.921 72.274 294.64 72.274C295.96 72.274 296.942 72.736 297.588 73.66C298.233 74.5693 298.556 75.9407 298.556 77.774V84H296.136V78.082C296.136 76.7913 295.938 75.8453 295.542 75.244C295.16 74.6427 294.581 74.342 293.804 74.342C293.158 74.342 292.616 74.5327 292.176 74.914C291.75 75.2953 291.413 75.8087 291.164 76.454C290.914 77.0993 290.753 77.8327 290.68 78.654V84H288.304ZM301.028 84V72.56H303.404V84H301.028ZM302.216 70.646C301.703 70.646 301.314 70.5433 301.05 70.338C300.786 70.118 300.654 69.7953 300.654 69.37C300.654 68.9593 300.786 68.644 301.05 68.424C301.314 68.204 301.703 68.094 302.216 68.094C302.744 68.094 303.14 68.204 303.404 68.424C303.668 68.644 303.8 68.9593 303.8 69.37C303.8 69.7953 303.668 70.118 303.404 70.338C303.14 70.5433 302.744 70.646 302.216 70.646ZM310.418 87.916C309.186 87.916 308.174 87.8207 307.382 87.63C306.604 87.4393 306.032 87.1533 305.666 86.772C305.299 86.3907 305.116 85.9213 305.116 85.364C305.116 84.6893 305.38 84.1393 305.908 83.714C306.436 83.274 307.235 82.9953 308.306 82.878V82.438C307.514 82.4527 306.912 82.372 306.502 82.196C306.106 82.0053 305.908 81.712 305.908 81.316C305.908 80.9053 306.106 80.5607 306.502 80.282C306.912 79.9887 307.572 79.732 308.482 79.512V79.094C307.587 79.0647 306.898 78.786 306.414 78.258C305.93 77.73 305.688 77.0553 305.688 76.234C305.688 75.486 305.886 74.8333 306.282 74.276C306.692 73.704 307.286 73.264 308.064 72.956C308.856 72.6333 309.809 72.472 310.924 72.472H316.446V74.408L312.904 73.88V74.32C313.784 74.4813 314.444 74.76 314.884 75.156C315.324 75.552 315.544 76.0873 315.544 76.762C315.544 77.3633 315.353 77.8987 314.972 78.368C314.605 78.8373 314.062 79.204 313.344 79.468C312.625 79.7173 311.745 79.842 310.704 79.842C310.513 79.842 310.308 79.8347 310.088 79.82C309.868 79.8053 309.545 79.7687 309.12 79.71C308.768 79.93 308.482 80.1353 308.262 80.326C308.056 80.5167 307.954 80.6853 307.954 80.832C307.954 80.9787 308.042 81.096 308.218 81.184C308.408 81.272 308.643 81.3307 308.922 81.36C309.2 81.3893 309.464 81.404 309.714 81.404H312.53C312.823 81.404 313.197 81.4333 313.652 81.492C314.106 81.536 314.561 81.6533 315.016 81.844C315.47 82.0347 315.852 82.3353 316.16 82.746C316.468 83.142 316.622 83.6993 316.622 84.418C316.622 85.2393 316.387 85.9067 315.918 86.42C315.448 86.9333 314.752 87.3073 313.828 87.542C312.904 87.7913 311.767 87.916 310.418 87.916ZM310.572 85.958C311.51 85.958 312.266 85.8993 312.838 85.782C313.41 85.6793 313.828 85.5033 314.092 85.254C314.356 85.0047 314.488 84.6893 314.488 84.308C314.488 83.956 314.4 83.6847 314.224 83.494C314.048 83.2887 313.828 83.1493 313.564 83.076C313.314 82.988 313.058 82.9367 312.794 82.922C312.53 82.9073 312.302 82.9 312.112 82.9H309.494C308.716 83.032 308.174 83.2593 307.866 83.582C307.558 83.89 307.404 84.2347 307.404 84.616C307.404 84.9827 307.536 85.2613 307.8 85.452C308.064 85.6573 308.43 85.7893 308.9 85.848C309.384 85.9213 309.941 85.958 310.572 85.958ZM310.726 78.434C311.576 78.434 312.214 78.2507 312.64 77.884C313.08 77.5027 313.3 77.004 313.3 76.388C313.3 75.728 313.08 75.1927 312.64 74.782C312.2 74.3567 311.547 74.144 310.682 74.144C309.831 74.144 309.178 74.3493 308.724 74.76C308.284 75.1707 308.064 75.6913 308.064 76.322C308.064 76.7473 308.166 77.1213 308.372 77.444C308.577 77.752 308.87 77.994 309.252 78.17C309.648 78.346 310.139 78.434 310.726 78.434ZM318.335 84V76.982V68.49H320.755V72.054C320.755 72.362 320.748 72.6847 320.733 73.022C320.719 73.3447 320.689 73.6747 320.645 74.012C320.601 74.3493 320.557 74.6867 320.513 75.024C320.469 75.3613 320.418 75.706 320.359 76.058H320.755C320.975 75.2367 321.247 74.5473 321.569 73.99C321.907 73.418 322.325 72.9927 322.823 72.714C323.337 72.4207 323.953 72.274 324.671 72.274C325.991 72.274 326.974 72.736 327.619 73.66C328.265 74.5693 328.587 75.9407 328.587 77.774V84H326.167V78.082C326.167 76.7913 325.969 75.8453 325.573 75.244C325.192 74.6427 324.613 74.342 323.835 74.342C323.19 74.342 322.647 74.5327 322.207 74.914C321.782 75.2953 321.445 75.8087 321.195 76.454C320.946 77.0993 320.785 77.8327 320.711 78.654V84H318.335ZM330.243 79.226V77.07H336.271V79.226H330.243ZM215.895 107.608V104.484C215.895 104.103 215.917 103.714 215.961 103.318C216.005 102.907 216.064 102.489 216.137 102.064C216.21 101.639 216.276 101.228 216.335 100.832H215.961C215.77 101.463 215.514 102.042 215.191 102.57C214.883 103.098 214.472 103.516 213.959 103.824C213.446 104.132 212.793 104.286 212.001 104.286C211.004 104.286 210.16 104.029 209.471 103.516C208.796 102.988 208.283 102.277 207.931 101.382C207.594 100.473 207.425 99.4533 207.425 98.324C207.425 97.1507 207.601 96.1093 207.953 95.2C208.32 94.2907 208.855 93.5793 209.559 93.066C210.278 92.538 211.143 92.274 212.155 92.274C212.888 92.274 213.512 92.4133 214.025 92.692C214.538 92.956 214.949 93.3373 215.257 93.836C215.58 94.3347 215.807 94.9213 215.939 95.596H216.335L216.225 92.582H218.315V98.258V107.608H215.895ZM212.749 102.284C213.174 102.284 213.556 102.203 213.893 102.042C214.23 101.866 214.524 101.639 214.773 101.36C215.037 101.081 215.25 100.773 215.411 100.436C215.587 100.099 215.712 99.7613 215.785 99.424C215.873 99.072 215.917 98.7493 215.917 98.456V98.126C215.917 97.7007 215.844 97.268 215.697 96.828C215.565 96.3733 215.367 95.9627 215.103 95.596C214.839 95.2147 214.509 94.9067 214.113 94.672C213.717 94.4373 213.262 94.32 212.749 94.32C212.162 94.32 211.656 94.4887 211.231 94.826C210.806 95.1487 210.476 95.6033 210.241 96.19C210.021 96.7767 209.911 97.4733 209.911 98.28C209.911 99.0573 210.021 99.7467 210.241 100.348C210.461 100.949 210.776 101.426 211.187 101.778C211.612 102.115 212.133 102.284 212.749 102.284ZM224.677 104.286C223.387 104.286 222.411 103.846 221.751 102.966C221.091 102.071 220.761 100.729 220.761 98.94V92.56H223.159V98.676C223.159 99.8787 223.343 100.773 223.709 101.36C224.076 101.947 224.655 102.24 225.447 102.24C225.887 102.24 226.276 102.13 226.613 101.91C226.951 101.69 227.244 101.382 227.493 100.986C227.757 100.59 227.963 100.128 228.109 99.6C228.271 99.0573 228.381 98.4633 228.439 97.818V92.56H230.815V99.248V104H228.791L228.901 100.37H228.527C228.337 101.279 228.065 102.027 227.713 102.614C227.376 103.186 226.951 103.611 226.437 103.89C225.939 104.154 225.352 104.286 224.677 104.286ZM236.087 104.286C235.456 104.286 234.892 104.169 234.393 103.934C233.894 103.685 233.498 103.318 233.205 102.834C232.926 102.35 232.787 101.749 232.787 101.03C232.787 100.458 232.89 99.9667 233.095 99.556C233.315 99.1307 233.638 98.7787 234.063 98.5C234.503 98.2067 235.06 97.972 235.735 97.796C236.41 97.6053 237.209 97.444 238.133 97.312C238.646 97.2387 239.064 97.1653 239.387 97.092C239.724 97.0187 239.966 96.9013 240.113 96.74C240.274 96.5787 240.355 96.3367 240.355 96.014C240.355 95.5153 240.179 95.09 239.827 94.738C239.49 94.3713 238.94 94.188 238.177 94.188C237.752 94.188 237.326 94.2613 236.901 94.408C236.49 94.5547 236.131 94.7967 235.823 95.134C235.53 95.4567 235.332 95.8967 235.229 96.454L233.073 95.772C233.205 95.2147 233.418 94.7233 233.711 94.298C234.004 93.858 234.371 93.4913 234.811 93.198C235.251 92.89 235.757 92.6627 236.329 92.516C236.916 92.3547 237.554 92.274 238.243 92.274C239.255 92.274 240.091 92.4427 240.751 92.78C241.411 93.1173 241.902 93.638 242.225 94.342C242.562 95.0313 242.731 95.9187 242.731 97.004V99.336C242.731 99.82 242.738 100.333 242.753 100.876C242.782 101.404 242.812 101.939 242.841 102.482C242.885 103.01 242.936 103.516 242.995 104H240.817C240.773 103.56 240.729 103.105 240.685 102.636C240.656 102.167 240.626 101.69 240.597 101.206H240.267C240.062 101.763 239.768 102.277 239.387 102.746C239.02 103.215 238.558 103.589 238.001 103.868C237.458 104.147 236.82 104.286 236.087 104.286ZM236.923 102.438C237.231 102.438 237.539 102.387 237.847 102.284C238.17 102.181 238.485 102.027 238.793 101.822C239.116 101.602 239.409 101.323 239.673 100.986C239.952 100.649 240.194 100.245 240.399 99.776L240.377 97.708L240.949 97.818C240.7 98.038 240.384 98.2067 240.003 98.324C239.636 98.4413 239.233 98.5367 238.793 98.61C238.353 98.6687 237.913 98.742 237.473 98.83C237.048 98.9033 236.652 99.0133 236.285 99.16C235.933 99.292 235.647 99.4827 235.427 99.732C235.222 99.9813 235.119 100.326 235.119 100.766C235.119 101.309 235.288 101.727 235.625 102.02C235.962 102.299 236.395 102.438 236.923 102.438ZM245.27 104V88.49H247.624V104H245.27ZM250.26 104V92.56H252.636V104H250.26ZM251.448 90.646C250.935 90.646 250.546 90.5433 250.282 90.338C250.018 90.118 249.886 89.7953 249.886 89.37C249.886 88.9593 250.018 88.644 250.282 88.424C250.546 88.204 250.935 88.094 251.448 88.094C251.976 88.094 252.372 88.204 252.636 88.424C252.9 88.644 253.032 88.9593 253.032 89.37C253.032 89.7953 252.9 90.118 252.636 90.338C252.372 90.5433 251.976 90.646 251.448 90.646ZM259.077 104.242C257.948 104.242 257.105 103.934 256.547 103.318C256.005 102.702 255.733 101.756 255.733 100.48V94.518H254.039L254.083 92.56H255.183C255.565 92.56 255.851 92.5013 256.041 92.384C256.232 92.252 256.349 92.0247 256.393 91.702L256.613 90.008H258.043V92.56H261.189V94.562H258.043V100.414C258.043 100.986 258.175 101.397 258.439 101.646C258.703 101.895 259.092 102.02 259.605 102.02C259.884 102.02 260.163 101.991 260.441 101.932C260.735 101.859 261.013 101.727 261.277 101.536V103.846C260.837 103.993 260.434 104.095 260.067 104.154C259.701 104.213 259.371 104.242 259.077 104.242ZM267.149 107.872C266.563 107.872 265.969 107.806 265.367 107.674C264.781 107.557 264.238 107.366 263.739 107.102C263.241 106.853 262.823 106.523 262.485 106.112L263.453 104.22C263.835 104.719 264.348 105.093 264.993 105.342C265.639 105.606 266.321 105.738 267.039 105.738C267.861 105.738 268.535 105.562 269.063 105.21C269.606 104.873 270.017 104.345 270.295 103.626C270.574 102.907 270.721 102.005 270.735 100.92L270.933 98.72H270.515C270.354 99.7613 270.097 100.597 269.745 101.228C269.408 101.859 268.99 102.313 268.491 102.592C267.993 102.871 267.406 103.01 266.731 103.01C265.895 103.01 265.191 102.805 264.619 102.394C264.062 101.969 263.637 101.345 263.343 100.524C263.065 99.688 262.925 98.6687 262.925 97.466V92.56H265.301V96.938C265.301 98.3313 265.485 99.3507 265.851 99.996C266.233 100.641 266.797 100.964 267.545 100.964C267.956 100.964 268.323 100.861 268.645 100.656C268.968 100.451 269.247 100.15 269.481 99.754C269.731 99.3433 269.921 98.8373 270.053 98.236C270.2 97.6347 270.288 96.938 270.317 96.146V92.56H272.715V101.03C272.715 101.939 272.642 102.761 272.495 103.494C272.349 104.213 272.121 104.843 271.813 105.386C271.52 105.943 271.153 106.405 270.713 106.772C270.273 107.153 269.753 107.432 269.151 107.608C268.565 107.784 267.897 107.872 267.149 107.872ZM285.055 104.286C283.955 104.286 282.98 104.051 282.129 103.582C281.279 103.113 280.611 102.431 280.127 101.536C279.658 100.641 279.423 99.5413 279.423 98.236C279.423 96.9013 279.673 95.794 280.171 94.914C280.67 94.034 281.337 93.374 282.173 92.934C283.024 92.494 283.977 92.274 285.033 92.274C286.119 92.274 287.087 92.5013 287.937 92.956C288.788 93.4107 289.455 94.0853 289.939 94.98C290.438 95.8747 290.687 96.9893 290.687 98.324C290.687 99.644 290.438 100.751 289.939 101.646C289.455 102.526 288.788 103.186 287.937 103.626C287.087 104.066 286.126 104.286 285.055 104.286ZM285.143 102.394C285.803 102.394 286.368 102.24 286.837 101.932C287.307 101.624 287.666 101.169 287.915 100.568C288.165 99.9667 288.289 99.248 288.289 98.412C288.289 97.5467 288.157 96.806 287.893 96.19C287.629 95.5593 287.248 95.0753 286.749 94.738C286.265 94.4007 285.671 94.232 284.967 94.232C284.337 94.232 283.779 94.386 283.295 94.694C282.826 94.9873 282.467 95.4347 282.217 96.036C281.968 96.6227 281.843 97.3413 281.843 98.192C281.843 99.5267 282.137 100.561 282.723 101.294C283.31 102.027 284.117 102.394 285.143 102.394ZM296.419 104.286C295.128 104.286 294.153 103.846 293.493 102.966C292.833 102.071 292.503 100.729 292.503 98.94V92.56H294.901V98.676C294.901 99.8787 295.084 100.773 295.451 101.36C295.817 101.947 296.397 102.24 297.189 102.24C297.629 102.24 298.017 102.13 298.355 101.91C298.692 101.69 298.985 101.382 299.235 100.986C299.499 100.59 299.704 100.128 299.851 99.6C300.012 99.0573 300.122 98.4633 300.181 97.818V92.56H302.557V99.248V104H300.533L300.643 100.37H300.269C300.078 101.279 299.807 102.027 299.455 102.614C299.117 103.186 298.692 103.611 298.179 103.89C297.68 104.154 297.093 104.286 296.419 104.286ZM308.994 104.242C307.865 104.242 307.021 103.934 306.464 103.318C305.921 102.702 305.65 101.756 305.65 100.48V94.518H303.956L304 92.56H305.1C305.481 92.56 305.767 92.5013 305.958 92.384C306.149 92.252 306.266 92.0247 306.31 91.702L306.53 90.008H307.96V92.56H311.106V94.562H307.96V100.414C307.96 100.986 308.092 101.397 308.356 101.646C308.62 101.895 309.009 102.02 309.522 102.02C309.801 102.02 310.079 101.991 310.358 101.932C310.651 101.859 310.93 101.727 311.194 101.536V103.846C310.754 103.993 310.351 104.095 309.984 104.154C309.617 104.213 309.287 104.242 308.994 104.242ZM312.908 107.608V98.324V92.56H314.976L314.91 95.574L315.262 95.596C315.423 94.9067 315.665 94.32 315.988 93.836C316.31 93.3373 316.721 92.956 317.22 92.692C317.733 92.4133 318.342 92.274 319.046 92.274C320.072 92.274 320.938 92.5307 321.642 93.044C322.36 93.5573 322.896 94.2687 323.248 95.178C323.614 96.0873 323.798 97.1287 323.798 98.302C323.798 99.446 323.622 100.473 323.27 101.382C322.932 102.277 322.419 102.988 321.73 103.516C321.04 104.029 320.197 104.286 319.2 104.286C318.422 104.286 317.777 104.132 317.264 103.824C316.75 103.501 316.332 103.083 316.01 102.57C315.687 102.042 315.438 101.463 315.262 100.832H314.866C314.954 101.228 315.027 101.639 315.086 102.064C315.144 102.475 315.196 102.885 315.24 103.296C315.284 103.707 315.306 104.095 315.306 104.462V107.608H312.908ZM318.496 102.284C319.097 102.284 319.603 102.115 320.014 101.778C320.439 101.426 320.762 100.949 320.982 100.348C321.202 99.7467 321.312 99.0573 321.312 98.28C321.312 97.4733 321.194 96.7767 320.96 96.19C320.74 95.6033 320.417 95.1487 319.992 94.826C319.566 94.4887 319.06 94.32 318.474 94.32C317.96 94.32 317.506 94.4373 317.11 94.672C316.714 94.9067 316.376 95.2147 316.098 95.596C315.834 95.9627 315.628 96.3733 315.482 96.828C315.35 97.268 315.284 97.7007 315.284 98.126V98.456C315.284 98.7493 315.328 99.0647 315.416 99.402C315.504 99.7393 315.628 100.077 315.79 100.414C315.966 100.751 316.178 101.067 316.428 101.36C316.692 101.639 316.992 101.866 317.33 102.042C317.682 102.203 318.07 102.284 318.496 102.284ZM329.609 104.286C328.318 104.286 327.343 103.846 326.683 102.966C326.023 102.071 325.693 100.729 325.693 98.94V92.56H328.091V98.676C328.091 99.8787 328.274 100.773 328.641 101.36C329.007 101.947 329.587 102.24 330.379 102.24C330.819 102.24 331.207 102.13 331.545 101.91C331.882 101.69 332.175 101.382 332.425 100.986C332.689 100.59 332.894 100.128 333.041 99.6C333.202 99.0573 333.312 98.4633 333.371 97.818V92.56H335.747V99.248V104H333.723L333.833 100.37H333.459C333.268 101.279 332.997 102.027 332.645 102.614C332.307 103.186 331.882 103.611 331.369 103.89C330.87 104.154 330.283 104.286 329.609 104.286ZM342.184 104.242C341.055 104.242 340.211 103.934 339.654 103.318C339.111 102.702 338.84 101.756 338.84 100.48V94.518H337.146L337.19 92.56H338.29C338.671 92.56 338.957 92.5013 339.148 92.384C339.339 92.252 339.456 92.0247 339.5 91.702L339.72 90.008H341.15V92.56H344.296V94.562H341.15V100.414C341.15 100.986 341.282 101.397 341.546 101.646C341.81 101.895 342.199 102.02 342.712 102.02C342.991 102.02 343.269 101.991 343.548 101.932C343.841 101.859 344.12 101.727 344.384 101.536V103.846C343.944 103.993 343.541 104.095 343.174 104.154C342.807 104.213 342.477 104.242 342.184 104.242Z" fill="#222021"/>
<circle cx="123.238" cy="148" r="25.5" fill="#222021" stroke="white"/>
<circle cx="424.238" cy="148" r="25.5" fill="#222021" stroke="white"/>
<circle cx="273.238" cy="151" r="25.5" fill="#222021" stroke="white"/>
<path d="M135.291 148.173C135.104 148.173 134.918 148.253 134.771 148.4L133.438 149.733L136.171 152.467L137.504 151.133C137.798 150.853 137.798 150.387 137.504 150.107L135.798 148.4C135.733 148.33 135.655 148.274 135.567 148.235C135.48 148.196 135.386 148.175 135.291 148.173ZM132.664 150.507L124.571 158.587V161.333H127.318L135.398 153.24L132.664 150.507ZM132.571 146.827L123.118 156.267C122.571 155.933 121.904 155.733 121.238 155.733C119.238 155.733 117.638 157.333 117.638 159.333V161.333H112.571C111.864 161.333 111.185 161.052 110.685 160.552C110.185 160.052 109.904 159.374 109.904 158.667V153.6H111.904C113.904 153.6 115.504 152 115.504 150C115.504 148 113.904 146.4 111.904 146.4H109.904V141.333C109.904 139.867 111.104 138.667 112.571 138.667H117.904V136.667C117.904 135.783 118.255 134.935 118.881 134.31C119.506 133.684 120.354 133.333 121.238 133.333C122.122 133.333 122.97 133.684 123.595 134.31C124.22 134.935 124.571 135.783 124.571 136.667V138.667H129.904C130.612 138.667 131.29 138.948 131.79 139.448C132.29 139.948 132.571 140.626 132.571 141.333V146.827Z" fill="#ED8224"/>
<path d="M282.761 146.505L283.059 145.821C283.581 144.611 284.538 143.641 285.741 143.103L286.658 142.693C286.77 142.642 286.864 142.56 286.93 142.457C286.996 142.354 287.031 142.234 287.031 142.111C287.031 141.989 286.996 141.869 286.93 141.766C286.864 141.663 286.77 141.581 286.658 141.529L285.792 141.144C284.559 140.59 283.585 139.584 283.072 138.333L282.766 137.595C282.721 137.481 282.643 137.382 282.542 137.313C282.44 137.244 282.32 137.207 282.197 137.207C282.074 137.207 281.954 137.244 281.853 137.313C281.751 137.382 281.673 137.481 281.628 137.595L281.322 138.332C280.809 139.583 279.836 140.589 278.604 141.144L277.736 141.531C277.625 141.582 277.531 141.664 277.465 141.767C277.399 141.87 277.364 141.99 277.364 142.112C277.364 142.234 277.399 142.354 277.465 142.457C277.531 142.56 277.625 142.642 277.736 142.693L278.654 143.101C279.857 143.641 280.813 144.611 281.336 145.821L281.633 146.505C281.85 147.006 282.543 147.006 282.761 146.505ZM275.415 143.66C275.746 144.183 276.199 144.57 276.773 144.821L277.456 145.119C278.144 145.42 278.637 145.902 278.933 146.567L279.342 147.485C280.22 149.463 282.835 149.774 284.262 148.42L284.372 148.567C284.54 148.791 284.625 149.066 284.612 149.346C284.6 149.625 284.491 149.892 284.303 150.1L273.428 162.183C273.315 162.309 273.176 162.41 273.022 162.479C272.867 162.547 272.7 162.583 272.53 162.583C272.361 162.583 272.194 162.547 272.039 162.479C271.884 162.41 271.746 162.309 271.633 162.183L260.758 150.1C260.57 149.892 260.461 149.625 260.448 149.346C260.436 149.066 260.521 148.791 260.689 148.567L264.314 143.733C264.426 143.583 264.572 143.461 264.74 143.378C264.908 143.294 265.093 143.25 265.28 143.25H275.196C275.258 143.39 275.331 143.527 275.414 143.66" fill="#ED8224"/>
<path d="M425.571 135C430.744 135 434.904 139.187 434.904 144.333C434.904 148.067 432.731 151.253 429.571 152.747V159H420.238V155H418.904C417.424 155 416.238 153.813 416.238 152.333V148.333H414.238C413.678 148.333 413.358 147.667 413.678 147.253L416.238 143.88C416.355 141.484 417.39 139.226 419.127 137.573C420.865 135.919 423.172 134.998 425.571 135ZM425.571 132.333C419.451 132.333 414.384 136.893 413.651 142.867L411.571 145.667H411.531L411.504 145.707C410.771 146.72 410.678 148.053 411.251 149.16C411.731 150.08 412.584 150.72 413.571 150.92V152.333C413.571 154.8 415.278 156.893 417.571 157.493V161.667H432.238V154.333C435.571 152.107 437.571 148.413 437.571 144.333C437.571 137.707 432.184 132.333 425.571 132.333ZM431.344 143.4L428.731 144.08L430.651 146.027C431.118 146.48 431.118 147.253 430.651 147.72C430.184 148.187 429.411 148.187 428.958 147.72L427.024 145.8L426.331 148.413C426.171 149.067 425.518 149.427 424.904 149.267C424.749 149.228 424.603 149.158 424.475 149.063C424.346 148.967 424.238 148.847 424.156 148.71C424.074 148.572 424.021 148.42 423.998 148.261C423.975 148.103 423.984 147.942 424.024 147.787L424.731 145.173L422.118 145.88C421.963 145.92 421.801 145.929 421.643 145.906C421.484 145.884 421.332 145.83 421.194 145.748C421.057 145.666 420.937 145.558 420.841 145.43C420.746 145.301 420.676 145.155 420.638 145C420.478 144.4 420.851 143.733 421.491 143.573L424.104 142.88L422.184 140.947C421.984 140.717 421.878 140.421 421.888 140.116C421.898 139.812 422.023 139.523 422.239 139.308C422.454 139.092 422.743 138.967 423.047 138.957C423.352 138.947 423.648 139.053 423.878 139.253L425.824 141.173L426.504 138.56C426.664 137.907 427.331 137.533 427.958 137.707C428.611 137.88 428.984 138.533 428.811 139.173L428.104 141.8L430.731 141.093C431.371 140.92 432.024 141.293 432.198 141.947C432.371 142.573 431.998 143.24 431.344 143.4Z" fill="#ED8224"/>
<defs>
<filter id="filter0_d_2527_1177" x="0.000391006" y="45.1" width="251.476" height="226.05" filterUnits="userSpaceOnUse" color-interpolation-filters="sRGB">
<feFlood flood-opacity="0" result="BackgroundImageFix"/>
<feColorMatrix in="SourceAlpha" type="matrix" values="0 0 0 0 0 0 0 0 0 0 0 0 0 0 0 0 0 0 127 0" result="hardAlpha"/>
<feOffset dy="4"/>
<feGaussianBlur stdDeviation="12.45"/>
<feComposite in2="hardAlpha" operator="out"/>
<feColorMatrix type="matrix" values="0 0 0 0 0 0 0 0 0 0 0 0 0 0 0 0 0 0 0.25 0"/>
<feBlend mode="normal" in2="BackgroundImageFix" result="effect1_dropShadow_2527_1177"/>
<feBlend mode="normal" in="SourceGraphic" in2="effect1_dropShadow_2527_1177" result="shape"/>
</filter>
<filter id="filter1_d_2527_1177" x="298" y="45.1" width="251.476" height="226.05" filterUnits="userSpaceOnUse" color-interpolation-filters="sRGB">
<feFlood flood-opacity="0" result="BackgroundImageFix"/>
<feColorMatrix in="SourceAlpha" type="matrix" values="0 0 0 0 0 0 0 0 0 0 0 0 0 0 0 0 0 0 127 0" result="hardAlpha"/>
<feOffset dy="4"/>
<feGaussianBlur stdDeviation="12.45"/>
<feComposite in2="hardAlpha" operator="out"/>
<feColorMatrix type="matrix" values="0 0 0 0 0 0 0 0 0 0 0 0 0 0 0 0 0 0 0.25 0"/>
<feBlend mode="normal" in2="BackgroundImageFix" result="effect1_dropShadow_2527_1177"/>
<feBlend mode="normal" in="SourceGraphic" in2="effect1_dropShadow_2527_1177" result="shape"/>
</filter>
<filter id="filter2_d_2527_1177" x="170.9" y="60.75" width="209.676" height="184.25" filterUnits="userSpaceOnUse" color-interpolation-filters="sRGB">
<feFlood flood-opacity="0" result="BackgroundImageFix"/>
<feColorMatrix in="SourceAlpha" type="matrix" values="0 0 0 0 0 0 0 0 0 0 0 0 0 0 0 0 0 0 127 0" result="hardAlpha"/>
<feOffset dy="4"/>
<feGaussianBlur stdDeviation="2"/>
<feComposite in2="hardAlpha" operator="out"/>
<feColorMatrix type="matrix" values="0 0 0 0 0 0 0 0 0 0 0 0 0 0 0 0 0 0 0.25 0"/>
<feBlend mode="normal" in2="BackgroundImageFix" result="effect1_dropShadow_2527_1177"/>
<feBlend mode="normal" in="SourceGraphic" in2="effect1_dropShadow_2527_1177" result="shape"/>
</filter>
</defs>
</svg>
