<svg width="61" height="61" viewBox="0 0 61 61" fill="none" xmlns="http://www.w3.org/2000/svg">
<circle cx="30.5" cy="30.5" r="29.5" stroke="#FF0101" stroke-width="2"/>
<path fill-rule="evenodd" clip-rule="evenodd" d="M50.4012 23.0739C50.214 21.6526 49.6712 20.3016 48.8232 19.1459C47.7722 18.0872 46.3469 17.4844 44.8552 17.4679C39.3212 17.0679 31.0032 17.0679 31.0032 17.0679C31.0032 17.0679 22.6892 17.0679 17.1472 17.4679C15.6562 17.4849 14.2317 18.0876 13.1812 19.1459C12.3274 20.2994 11.7835 21.6524 11.6012 23.0759C11.3534 25.2045 11.2199 27.3449 11.2012 29.4879V32.4879C11.2199 34.6308 11.3534 36.7712 11.6012 38.8999C11.7892 40.3239 12.3292 41.6799 13.1692 42.8439C14.3772 43.9159 15.9292 44.5179 17.5432 44.5399C20.7092 44.8419 31.0052 44.9399 31.0052 44.9399C31.0052 44.9399 39.3272 44.9399 44.8612 44.5399C46.3539 44.5233 47.78 43.9198 48.8312 42.8599C49.6751 41.7015 50.2162 40.3506 50.4052 38.9299C50.6529 36.8012 50.7864 34.6608 50.8052 32.5179V29.4859C50.7814 27.343 50.6466 25.2028 50.4012 23.0739ZM27.0172 36.1819V24.9419L37.8172 30.5799L27.0172 36.1819Z" fill="#FF0101"/>
</svg>
